M48
; DRILL file {KiCad 9.0.7} date 2026-03-16T21:17:28+0530
; FORMAT={-:-/ absolute / metric / decimal}
; #@! TF.CreationDate,2026-03-16T21:17:28+05:30
; #@! TF.GenerationSoftware,Kicad,Pcbnew,9.0.7
; #@! TF.FileFunction,Plated,1,2,PTH
FMAT,2
METRIC
; #@! TA.AperFunction,Plated,PTH,ViaDrill
T1C0.300
; #@! TA.AperFunction,Plated,PTH,ViaDrill
T2C0.400
; #@! TA.AperFunction,Plated,PTH,ComponentDrill
T3C1.000
%
G90
G05
T1
X32.3Y-74.475
X33.0Y-34.1
X33.1Y-35.3
X33.1Y-75.75
X36.55Y-78.28
X36.8Y-31.5
X38.4Y-78.3
X41.9Y-43.0
X45.3Y-49.2
X58.0Y-97.6
X58.05Y-63.55
X58.3Y-57.2
X61.655Y-59.745
X61.655Y-100.085
X62.5Y-61.0
X62.5Y-101.35
T2
X36.3Y-76.6
X36.65Y-36.6
X38.4Y-43.7
X38.4Y-84.1
X38.6Y-31.5
X39.9Y-70.5
X43.9Y-84.6
X44.9Y-89.8
X52.6Y-104.0
X56.8Y-90.4
X57.0Y-49.7
T3
X35.455Y-89.36
X35.455Y-91.9
X35.455Y-94.44
X35.455Y-96.98
X35.455Y-99.52
X35.455Y-102.06
X35.455Y-104.6
X35.455Y-107.14
X35.575Y-48.965
X35.575Y-51.505
X35.575Y-54.045
X35.575Y-56.585
X35.575Y-59.125
X35.575Y-61.665
X35.575Y-64.205
X35.575Y-66.745
X44.36Y-66.775
X44.475Y-28.4
X45.225Y-106.75
X46.9Y-66.775
X47.765Y-106.75
X59.225Y-106.75
X59.3Y-68.715
X59.3Y-71.255
X59.3Y-73.795
X59.3Y-76.335
X59.3Y-78.875
X59.3Y-81.415
X59.3Y-83.955
X59.3Y-86.495
X59.44Y-28.29
X59.44Y-30.83
X59.44Y-33.37
X59.44Y-35.91
X59.44Y-38.45
X59.44Y-40.99
X59.44Y-43.53
X59.44Y-46.07
M30
