%TF.GenerationSoftware,KiCad,Pcbnew,9.0.7*%
%TF.CreationDate,2026-03-16T21:17:10+05:30*%
%TF.ProjectId,RGB CUBE 4.0 1,52474220-4355-4424-9520-342e3020312e,rev?*%
%TF.SameCoordinates,Original*%
%TF.FileFunction,Soldermask,Top*%
%TF.FilePolarity,Negative*%
%FSLAX46Y46*%
G04 Gerber Fmt 4.6, Leading zero omitted, Abs format (unit mm)*
G04 Created by KiCad (PCBNEW 9.0.7) date 2026-03-16 21:17:10*
%MOMM*%
%LPD*%
G01*
G04 APERTURE LIST*
G04 Aperture macros list*
%AMRoundRect*
0 Rectangle with rounded corners*
0 $1 Rounding radius*
0 $2 $3 $4 $5 $6 $7 $8 $9 X,Y pos of 4 corners*
0 Add a 4 corners polygon primitive as box body*
4,1,4,$2,$3,$4,$5,$6,$7,$8,$9,$2,$3,0*
0 Add four circle primitives for the rounded corners*
1,1,$1+$1,$2,$3*
1,1,$1+$1,$4,$5*
1,1,$1+$1,$6,$7*
1,1,$1+$1,$8,$9*
0 Add four rect primitives between the rounded corners*
20,1,$1+$1,$2,$3,$4,$5,0*
20,1,$1+$1,$4,$5,$6,$7,0*
20,1,$1+$1,$6,$7,$8,$9,0*
20,1,$1+$1,$8,$9,$2,$3,0*%
G04 Aperture macros list end*
%ADD10R,1.700000X1.700000*%
%ADD11RoundRect,0.250000X0.250000X0.475000X-0.250000X0.475000X-0.250000X-0.475000X0.250000X-0.475000X0*%
%ADD12RoundRect,0.250000X-0.250000X-0.475000X0.250000X-0.475000X0.250000X0.475000X-0.250000X0.475000X0*%
%ADD13RoundRect,0.150000X0.875000X0.150000X-0.875000X0.150000X-0.875000X-0.150000X0.875000X-0.150000X0*%
%ADD14RoundRect,0.150000X-0.875000X-0.150000X0.875000X-0.150000X0.875000X0.150000X-0.875000X0.150000X0*%
%ADD15C,1.700000*%
%ADD16RoundRect,0.150000X0.825000X0.150000X-0.825000X0.150000X-0.825000X-0.150000X0.825000X-0.150000X0*%
%ADD17RoundRect,0.150000X-0.825000X-0.150000X0.825000X-0.150000X0.825000X0.150000X-0.825000X0.150000X0*%
G04 APERTURE END LIST*
D10*
%TO.C,J7*%
X59225000Y-106750000D03*
%TD*%
D11*
%TO.C,C7*%
X59790000Y-91780000D03*
X57890000Y-91780000D03*
%TD*%
%TO.C,C4*%
X43635000Y-49410000D03*
X41735000Y-49410000D03*
%TD*%
D10*
%TO.C,J6*%
X44475000Y-28400000D03*
%TD*%
D12*
%TO.C,C2*%
X51390000Y-45630000D03*
X53290000Y-45630000D03*
%TD*%
D13*
%TO.C,U8*%
X50905000Y-102650000D03*
X50905000Y-101380000D03*
X50905000Y-100110000D03*
X50905000Y-98840000D03*
X50905000Y-97570000D03*
X50905000Y-96300000D03*
X50905000Y-95030000D03*
X50905000Y-93760000D03*
X50905000Y-92490000D03*
X41605000Y-92490000D03*
X41605000Y-93760000D03*
X41605000Y-95030000D03*
X41605000Y-96300000D03*
X41605000Y-97570000D03*
X41605000Y-98840000D03*
X41605000Y-100110000D03*
X41605000Y-101380000D03*
X41605000Y-102650000D03*
%TD*%
D14*
%TO.C,U2*%
X43990000Y-32790000D03*
X43990000Y-34060000D03*
X43990000Y-35330000D03*
X43990000Y-36600000D03*
X43990000Y-37870000D03*
X43990000Y-39140000D03*
X43990000Y-40410000D03*
X43990000Y-41680000D03*
X43990000Y-42950000D03*
X53290000Y-42950000D03*
X53290000Y-41680000D03*
X53290000Y-40410000D03*
X53290000Y-39140000D03*
X53290000Y-37870000D03*
X53290000Y-36600000D03*
X53290000Y-35330000D03*
X53290000Y-34060000D03*
X53290000Y-32790000D03*
%TD*%
D10*
%TO.C,J3*%
X59300000Y-68715000D03*
D15*
X59300000Y-71255000D03*
X59300000Y-73795000D03*
X59300000Y-76335000D03*
X59300000Y-78875000D03*
X59300000Y-81415000D03*
X59300000Y-83955000D03*
X59300000Y-86495000D03*
%TD*%
D16*
%TO.C,U1*%
X40065000Y-40395000D03*
X40065000Y-39125000D03*
X40065000Y-37855000D03*
X40065000Y-36585000D03*
X40065000Y-35315000D03*
X40065000Y-34045000D03*
X40065000Y-32775000D03*
X40065000Y-31505000D03*
X35115000Y-31505000D03*
X35115000Y-32775000D03*
X35115000Y-34045000D03*
X35115000Y-35315000D03*
X35115000Y-36585000D03*
X35115000Y-37855000D03*
X35115000Y-39125000D03*
X35115000Y-40395000D03*
%TD*%
D11*
%TO.C,C3*%
X59910000Y-51385000D03*
X58010000Y-51385000D03*
%TD*%
D10*
%TO.C,J1*%
X59440000Y-28290000D03*
D15*
X59440000Y-30830000D03*
X59440000Y-33370000D03*
X59440000Y-35910000D03*
X59440000Y-38450000D03*
X59440000Y-40990000D03*
X59440000Y-43530000D03*
X59440000Y-46070000D03*
%TD*%
D14*
%TO.C,U6*%
X43850000Y-73220000D03*
X43850000Y-74490000D03*
X43850000Y-75760000D03*
X43850000Y-77030000D03*
X43850000Y-78300000D03*
X43850000Y-79570000D03*
X43850000Y-80840000D03*
X43850000Y-82110000D03*
X43850000Y-83380000D03*
X53150000Y-83380000D03*
X53150000Y-82110000D03*
X53150000Y-80840000D03*
X53150000Y-79570000D03*
X53150000Y-78300000D03*
X53150000Y-77030000D03*
X53150000Y-75760000D03*
X53150000Y-74490000D03*
X53150000Y-73220000D03*
%TD*%
D12*
%TO.C,C6*%
X51240000Y-86050000D03*
X53140000Y-86050000D03*
%TD*%
D10*
%TO.C,J5*%
X45225000Y-106750000D03*
D15*
X47765000Y-106750000D03*
%TD*%
D13*
%TO.C,U4*%
X51025000Y-62255000D03*
X51025000Y-60985000D03*
X51025000Y-59715000D03*
X51025000Y-58445000D03*
X51025000Y-57175000D03*
X51025000Y-55905000D03*
X51025000Y-54635000D03*
X51025000Y-53365000D03*
X51025000Y-52095000D03*
X41725000Y-52095000D03*
X41725000Y-53365000D03*
X41725000Y-54635000D03*
X41725000Y-55905000D03*
X41725000Y-57175000D03*
X41725000Y-58445000D03*
X41725000Y-59715000D03*
X41725000Y-60985000D03*
X41725000Y-62255000D03*
%TD*%
D12*
%TO.C,C5*%
X34965000Y-84075000D03*
X36865000Y-84075000D03*
%TD*%
D11*
%TO.C,C8*%
X43515000Y-89805000D03*
X41615000Y-89805000D03*
%TD*%
D16*
%TO.C,U5*%
X39925000Y-80820000D03*
X39925000Y-79550000D03*
X39925000Y-78280000D03*
X39925000Y-77010000D03*
X39925000Y-75740000D03*
X39925000Y-74470000D03*
X39925000Y-73200000D03*
X39925000Y-71930000D03*
X34975000Y-71930000D03*
X34975000Y-73200000D03*
X34975000Y-74470000D03*
X34975000Y-75740000D03*
X34975000Y-77010000D03*
X34975000Y-78280000D03*
X34975000Y-79550000D03*
X34975000Y-80820000D03*
%TD*%
D10*
%TO.C,J2*%
X35575000Y-66745000D03*
D15*
X35575000Y-64205000D03*
X35575000Y-61665000D03*
X35575000Y-59125000D03*
X35575000Y-56585000D03*
X35575000Y-54045000D03*
X35575000Y-51505000D03*
X35575000Y-48965000D03*
%TD*%
D10*
%TO.C,J4*%
X35455000Y-107140000D03*
D15*
X35455000Y-104600000D03*
X35455000Y-102060000D03*
X35455000Y-99520000D03*
X35455000Y-96980000D03*
X35455000Y-94440000D03*
X35455000Y-91900000D03*
X35455000Y-89360000D03*
%TD*%
D10*
%TO.C,J11*%
X46900000Y-66775000D03*
D15*
X44360000Y-66775000D03*
%TD*%
D17*
%TO.C,U3*%
X54950000Y-54645000D03*
X54950000Y-55915000D03*
X54950000Y-57185000D03*
X54950000Y-58455000D03*
X54950000Y-59725000D03*
X54950000Y-60995000D03*
X54950000Y-62265000D03*
X54950000Y-63535000D03*
X59900000Y-63535000D03*
X59900000Y-62265000D03*
X59900000Y-60995000D03*
X59900000Y-59725000D03*
X59900000Y-58455000D03*
X59900000Y-57185000D03*
X59900000Y-55915000D03*
X59900000Y-54645000D03*
%TD*%
D12*
%TO.C,C1*%
X35115000Y-43655000D03*
X37015000Y-43655000D03*
%TD*%
D17*
%TO.C,U7*%
X54830000Y-95040000D03*
X54830000Y-96310000D03*
X54830000Y-97580000D03*
X54830000Y-98850000D03*
X54830000Y-100120000D03*
X54830000Y-101390000D03*
X54830000Y-102660000D03*
X54830000Y-103930000D03*
X59780000Y-103930000D03*
X59780000Y-102660000D03*
X59780000Y-101390000D03*
X59780000Y-100120000D03*
X59780000Y-98850000D03*
X59780000Y-97580000D03*
X59780000Y-96310000D03*
X59780000Y-95040000D03*
%TD*%
M02*
