%TF.GenerationSoftware,KiCad,Pcbnew,9.0.7*%
%TF.CreationDate,2026-03-16T21:17:10+05:30*%
%TF.ProjectId,RGB CUBE 4.0 1,52474220-4355-4424-9520-342e3020312e,rev?*%
%TF.SameCoordinates,Original*%
%TF.FileFunction,Copper,L2,Bot*%
%TF.FilePolarity,Positive*%
%FSLAX46Y46*%
G04 Gerber Fmt 4.6, Leading zero omitted, Abs format (unit mm)*
G04 Created by KiCad (PCBNEW 9.0.7) date 2026-03-16 21:17:10*
%MOMM*%
%LPD*%
G01*
G04 APERTURE LIST*
%TA.AperFunction,ComponentPad*%
%ADD10R,1.700000X1.700000*%
%TD*%
%TA.AperFunction,ComponentPad*%
%ADD11C,1.700000*%
%TD*%
%TA.AperFunction,ViaPad*%
%ADD12C,0.600000*%
%TD*%
%TA.AperFunction,ViaPad*%
%ADD13C,0.800000*%
%TD*%
%TA.AperFunction,Conductor*%
%ADD14C,0.200000*%
%TD*%
G04 APERTURE END LIST*
D10*
%TO.P,J7,1,Pin_1*%
%TO.N,/DATA_OUT*%
X59225000Y-106750000D03*
%TD*%
%TO.P,J6,1,Pin_1*%
%TO.N,/DTAT_IN*%
X44475000Y-28400000D03*
%TD*%
%TO.P,J3,1,DATA_IN*%
%TO.N,Net-(J3-DATA_IN)*%
X59300000Y-68715000D03*
D11*
%TO.P,J3,2,CLK*%
%TO.N,Net-(J3-CLK)*%
X59300000Y-71255000D03*
%TO.P,J3,3,LATCH*%
%TO.N,Net-(J3-LATCH)*%
X59300000Y-73795000D03*
%TO.P,J3,4,+5V*%
%TO.N,Net-(J3-+5V)*%
X59300000Y-76335000D03*
%TO.P,J3,5,GND*%
%TO.N,Net-(J3-GND)*%
X59300000Y-78875000D03*
%TO.P,J3,6,NC_(spare)*%
%TO.N,Net-(J3-NC_(spare))*%
X59300000Y-81415000D03*
%TO.P,J3,7,Pin_7*%
%TO.N,Net-(J3-Pin_7)*%
X59300000Y-83955000D03*
%TO.P,J3,8,Pin_8*%
%TO.N,Net-(J3-Pin_8)*%
X59300000Y-86495000D03*
%TD*%
D10*
%TO.P,J1,1,DATA_IN*%
%TO.N,Net-(J1-DATA_IN)*%
X59440000Y-28290000D03*
D11*
%TO.P,J1,2,CLK*%
%TO.N,Net-(J1-CLK)*%
X59440000Y-30830000D03*
%TO.P,J1,3,LATCH*%
%TO.N,Net-(J1-LATCH)*%
X59440000Y-33370000D03*
%TO.P,J1,4,+5V*%
%TO.N,Net-(J1-+5V)*%
X59440000Y-35910000D03*
%TO.P,J1,5,GND*%
%TO.N,Net-(J1-GND)*%
X59440000Y-38450000D03*
%TO.P,J1,6,NC_(spare)*%
%TO.N,Net-(J1-NC_(spare))*%
X59440000Y-40990000D03*
%TO.P,J1,7,Pin_7*%
%TO.N,Net-(J1-Pin_7)*%
X59440000Y-43530000D03*
%TO.P,J1,8,Pin_8*%
%TO.N,Net-(J1-Pin_8)*%
X59440000Y-46070000D03*
%TD*%
D10*
%TO.P,J5,1,Pin_1*%
%TO.N,/LATCH*%
X45225000Y-106750000D03*
D11*
%TO.P,J5,2,Pin_2*%
%TO.N,/CLK*%
X47765000Y-106750000D03*
%TD*%
D10*
%TO.P,J2,1,DATA_IN*%
%TO.N,Net-(J2-DATA_IN)*%
X35575000Y-66745000D03*
D11*
%TO.P,J2,2,CLK*%
%TO.N,Net-(J2-CLK)*%
X35575000Y-64205000D03*
%TO.P,J2,3,LATCH*%
%TO.N,Net-(J2-LATCH)*%
X35575000Y-61665000D03*
%TO.P,J2,4,+5V*%
%TO.N,Net-(J2-+5V)*%
X35575000Y-59125000D03*
%TO.P,J2,5,GND*%
%TO.N,Net-(J2-GND)*%
X35575000Y-56585000D03*
%TO.P,J2,6,NC_(spare)*%
%TO.N,Net-(J2-NC_(spare))*%
X35575000Y-54045000D03*
%TO.P,J2,7,Pin_7*%
%TO.N,Net-(J2-Pin_7)*%
X35575000Y-51505000D03*
%TO.P,J2,8,Pin_8*%
%TO.N,Net-(J2-Pin_8)*%
X35575000Y-48965000D03*
%TD*%
D10*
%TO.P,J4,1,DATA_IN*%
%TO.N,Net-(J4-DATA_IN)*%
X35455000Y-107140000D03*
D11*
%TO.P,J4,2,CLK*%
%TO.N,Net-(J4-CLK)*%
X35455000Y-104600000D03*
%TO.P,J4,3,LATCH*%
%TO.N,Net-(J4-LATCH)*%
X35455000Y-102060000D03*
%TO.P,J4,4,+5V*%
%TO.N,Net-(J4-+5V)*%
X35455000Y-99520000D03*
%TO.P,J4,5,GND*%
%TO.N,Net-(J4-GND)*%
X35455000Y-96980000D03*
%TO.P,J4,6,NC_(spare)*%
%TO.N,Net-(J4-NC_(spare))*%
X35455000Y-94440000D03*
%TO.P,J4,7,Pin_7*%
%TO.N,Net-(J4-Pin_7)*%
X35455000Y-91900000D03*
%TO.P,J4,8,Pin_8*%
%TO.N,Net-(J4-Pin_8)*%
X35455000Y-89360000D03*
%TD*%
D10*
%TO.P,J11,1,Pin_1*%
%TO.N,GND*%
X46900000Y-66775000D03*
D11*
%TO.P,J11,2,Pin_2*%
%TO.N,+5V*%
X44360000Y-66775000D03*
%TD*%
D12*
%TO.N,GND*%
X45300000Y-49200000D03*
D13*
X52600000Y-104000000D03*
X38400000Y-43700000D03*
X43900000Y-84600000D03*
X38600000Y-31500000D03*
X56800000Y-90400000D03*
X38400000Y-84100000D03*
X36300000Y-76600000D03*
X39900000Y-70500000D03*
X57000000Y-49700000D03*
D12*
X41900000Y-43000000D03*
D13*
X44900000Y-89800000D03*
X36650000Y-36600000D03*
D12*
%TO.N,Net-(U1-QH')*%
X36800000Y-31500000D03*
X58300000Y-57200000D03*
%TO.N,Net-(U3-QH')*%
X58050000Y-63550000D03*
X36550000Y-78280000D03*
%TO.N,Net-(U5-QH')*%
X58000000Y-97600000D03*
X38400000Y-78300000D03*
%TO.N,/LATCH*%
X61655000Y-59745000D03*
X33100000Y-75750000D03*
X33100000Y-35300000D03*
X61655000Y-100085000D03*
%TO.N,/CLK*%
X32300000Y-74475000D03*
X62500000Y-101350000D03*
X33000000Y-34100000D03*
X62500000Y-61000000D03*
%TD*%
D14*
%TO.N,Net-(U1-QH')*%
X36800000Y-31500000D02*
X36800000Y-33400000D01*
X36800000Y-33400000D02*
X58300000Y-54900000D01*
X58300000Y-54900000D02*
X58300000Y-57200000D01*
%TO.N,Net-(U3-QH')*%
X43200000Y-70800000D02*
X49875000Y-70800000D01*
X57125000Y-63550000D02*
X58050000Y-63550000D01*
X36550000Y-78280000D02*
X36550000Y-77450000D01*
X36550000Y-77450000D02*
X43200000Y-70800000D01*
X49875000Y-70800000D02*
X57125000Y-63550000D01*
%TO.N,Net-(U5-QH')*%
X58000000Y-95675000D02*
X58000000Y-97600000D01*
X40625000Y-78300000D02*
X58000000Y-95675000D01*
X38400000Y-78300000D02*
X40625000Y-78300000D01*
%TO.N,/LATCH*%
X33100000Y-35300000D02*
X33100000Y-109150000D01*
X61655000Y-100085000D02*
X61655000Y-59745000D01*
X61655000Y-109150000D02*
X61655000Y-100085000D01*
X45250000Y-109150000D02*
X61655000Y-109150000D01*
X33100000Y-109150000D02*
X45250000Y-109150000D01*
X45225000Y-106750000D02*
X45225000Y-109125000D01*
X45225000Y-109125000D02*
X45250000Y-109150000D01*
%TO.N,/CLK*%
X32300000Y-110000000D02*
X62500000Y-110000000D01*
X62500000Y-110000000D02*
X62500000Y-101350000D01*
X33000000Y-34100000D02*
X32350000Y-34100000D01*
X32300000Y-74475000D02*
X32300000Y-110000000D01*
X32350000Y-34100000D02*
X32300000Y-34150000D01*
X62500000Y-101350000D02*
X62500000Y-60950000D01*
X32300000Y-34150000D02*
X32300000Y-74550000D01*
%TD*%
%TA.AperFunction,Conductor*%
%TO.N,GND*%
G36*
X64192539Y-25770185D02*
G01*
X64238294Y-25822989D01*
X64249500Y-25874500D01*
X64249500Y-111625500D01*
X64229815Y-111692539D01*
X64177011Y-111738294D01*
X64125500Y-111749500D01*
X30374500Y-111749500D01*
X30307461Y-111729815D01*
X30261706Y-111677011D01*
X30250500Y-111625500D01*
X30250500Y-74396153D01*
X31499500Y-74396153D01*
X31499500Y-74553846D01*
X31530261Y-74708489D01*
X31530264Y-74708501D01*
X31590602Y-74854172D01*
X31590609Y-74854185D01*
X31678602Y-74985874D01*
X31699480Y-75052551D01*
X31699500Y-75054765D01*
X31699500Y-110079056D01*
X31740423Y-110231783D01*
X31740426Y-110231790D01*
X31819475Y-110368709D01*
X31819479Y-110368714D01*
X31819480Y-110368716D01*
X31931284Y-110480520D01*
X31931286Y-110480521D01*
X31931290Y-110480524D01*
X32068209Y-110559573D01*
X32068216Y-110559577D01*
X32220943Y-110600500D01*
X32220945Y-110600500D01*
X62579055Y-110600500D01*
X62579057Y-110600500D01*
X62731784Y-110559577D01*
X62868716Y-110480520D01*
X62980520Y-110368716D01*
X63059577Y-110231784D01*
X63100500Y-110079057D01*
X63100500Y-101929765D01*
X63120185Y-101862726D01*
X63121398Y-101860874D01*
X63209390Y-101729185D01*
X63209390Y-101729184D01*
X63209394Y-101729179D01*
X63269737Y-101583497D01*
X63300500Y-101428842D01*
X63300500Y-101271158D01*
X63300500Y-101271155D01*
X63300499Y-101271153D01*
X63269738Y-101116510D01*
X63269737Y-101116503D01*
X63269735Y-101116498D01*
X63209397Y-100970827D01*
X63209390Y-100970814D01*
X63121398Y-100839125D01*
X63100520Y-100772447D01*
X63100500Y-100770234D01*
X63100500Y-61579765D01*
X63120185Y-61512726D01*
X63121398Y-61510874D01*
X63209390Y-61379185D01*
X63209390Y-61379184D01*
X63209394Y-61379179D01*
X63269737Y-61233497D01*
X63300500Y-61078842D01*
X63300500Y-60921158D01*
X63300500Y-60921155D01*
X63300499Y-60921153D01*
X63269737Y-60766503D01*
X63215222Y-60634890D01*
X63209397Y-60620827D01*
X63209390Y-60620814D01*
X63121789Y-60489711D01*
X63121786Y-60489707D01*
X63010292Y-60378213D01*
X63010288Y-60378210D01*
X62879185Y-60290609D01*
X62879172Y-60290602D01*
X62733501Y-60230264D01*
X62733489Y-60230261D01*
X62578845Y-60199500D01*
X62578842Y-60199500D01*
X62518774Y-60199500D01*
X62451735Y-60179815D01*
X62405980Y-60127011D01*
X62396036Y-60057853D01*
X62404213Y-60028048D01*
X62424735Y-59978501D01*
X62424737Y-59978497D01*
X62455500Y-59823842D01*
X62455500Y-59666158D01*
X62455500Y-59666155D01*
X62455499Y-59666153D01*
X62450976Y-59643414D01*
X62424737Y-59511503D01*
X62395633Y-59441239D01*
X62364397Y-59365827D01*
X62364390Y-59365814D01*
X62276789Y-59234711D01*
X62276786Y-59234707D01*
X62165292Y-59123213D01*
X62165288Y-59123210D01*
X62034185Y-59035609D01*
X62034172Y-59035602D01*
X61888501Y-58975264D01*
X61888489Y-58975261D01*
X61733845Y-58944500D01*
X61733842Y-58944500D01*
X61576158Y-58944500D01*
X61576155Y-58944500D01*
X61421510Y-58975261D01*
X61421498Y-58975264D01*
X61275827Y-59035602D01*
X61275814Y-59035609D01*
X61144711Y-59123210D01*
X61144707Y-59123213D01*
X61033213Y-59234707D01*
X61033210Y-59234711D01*
X60945609Y-59365814D01*
X60945602Y-59365827D01*
X60885264Y-59511498D01*
X60885261Y-59511510D01*
X60854500Y-59666153D01*
X60854500Y-59823846D01*
X60885261Y-59978489D01*
X60885264Y-59978501D01*
X60945602Y-60124172D01*
X60945609Y-60124185D01*
X61033602Y-60255874D01*
X61054480Y-60322551D01*
X61054500Y-60324765D01*
X61054500Y-99505234D01*
X61034815Y-99572273D01*
X61033602Y-99574125D01*
X60945609Y-99705814D01*
X60945602Y-99705827D01*
X60885264Y-99851498D01*
X60885261Y-99851510D01*
X60854500Y-100006153D01*
X60854500Y-100163846D01*
X60885261Y-100318489D01*
X60885264Y-100318501D01*
X60945602Y-100464172D01*
X60945609Y-100464185D01*
X61033602Y-100595874D01*
X61054480Y-100662551D01*
X61054500Y-100664765D01*
X61054500Y-108425500D01*
X61034815Y-108492539D01*
X60982011Y-108538294D01*
X60930500Y-108549500D01*
X45949500Y-108549500D01*
X45940814Y-108546949D01*
X45931853Y-108548238D01*
X45907812Y-108537259D01*
X45882461Y-108529815D01*
X45876533Y-108522974D01*
X45868297Y-108519213D01*
X45854007Y-108496978D01*
X45836706Y-108477011D01*
X45834418Y-108466496D01*
X45830523Y-108460435D01*
X45825500Y-108425500D01*
X45825500Y-108224499D01*
X45845185Y-108157460D01*
X45897989Y-108111705D01*
X45949500Y-108100499D01*
X46122871Y-108100499D01*
X46122872Y-108100499D01*
X46182483Y-108094091D01*
X46317331Y-108043796D01*
X46432546Y-107957546D01*
X46518796Y-107842331D01*
X46567810Y-107710916D01*
X46609681Y-107654984D01*
X46675145Y-107630566D01*
X46743418Y-107645417D01*
X46771673Y-107666569D01*
X46885213Y-107780109D01*
X47057179Y-107905048D01*
X47057181Y-107905049D01*
X47057184Y-107905051D01*
X47246588Y-108001557D01*
X47448757Y-108067246D01*
X47658713Y-108100500D01*
X47658714Y-108100500D01*
X47871286Y-108100500D01*
X47871287Y-108100500D01*
X48081243Y-108067246D01*
X48283412Y-108001557D01*
X48472816Y-107905051D01*
X48559138Y-107842335D01*
X48644786Y-107780109D01*
X48644788Y-107780106D01*
X48644792Y-107780104D01*
X48795104Y-107629792D01*
X48795106Y-107629788D01*
X48795109Y-107629786D01*
X48920048Y-107457820D01*
X48920047Y-107457820D01*
X48920051Y-107457816D01*
X49016557Y-107268412D01*
X49082246Y-107066243D01*
X49115500Y-106856287D01*
X49115500Y-106643713D01*
X49082246Y-106433757D01*
X49016557Y-106231588D01*
X48920051Y-106042184D01*
X48795104Y-105870208D01*
X48777031Y-105852135D01*
X57874500Y-105852135D01*
X57874500Y-107647870D01*
X57874501Y-107647876D01*
X57880908Y-107707483D01*
X57931202Y-107842328D01*
X57931206Y-107842335D01*
X58017452Y-107957544D01*
X58017455Y-107957547D01*
X58132664Y-108043793D01*
X58132671Y-108043797D01*
X58267517Y-108094091D01*
X58267516Y-108094091D01*
X58274444Y-108094835D01*
X58327127Y-108100500D01*
X60122872Y-108100499D01*
X60182483Y-108094091D01*
X60317331Y-108043796D01*
X60432546Y-107957546D01*
X60518796Y-107842331D01*
X60569091Y-107707483D01*
X60575500Y-107647873D01*
X60575499Y-105852128D01*
X60569091Y-105792517D01*
X60518796Y-105657669D01*
X60518795Y-105657668D01*
X60518793Y-105657664D01*
X60432547Y-105542455D01*
X60432544Y-105542452D01*
X60317335Y-105456206D01*
X60317328Y-105456202D01*
X60182482Y-105405908D01*
X60182483Y-105405908D01*
X60122883Y-105399501D01*
X60122881Y-105399500D01*
X60122873Y-105399500D01*
X60122864Y-105399500D01*
X58327129Y-105399500D01*
X58327123Y-105399501D01*
X58267516Y-105405908D01*
X58132671Y-105456202D01*
X58132664Y-105456206D01*
X58017455Y-105542452D01*
X58017452Y-105542455D01*
X57931206Y-105657664D01*
X57931202Y-105657671D01*
X57880908Y-105792517D01*
X57874501Y-105852116D01*
X57874501Y-105852123D01*
X57874500Y-105852135D01*
X48777031Y-105852135D01*
X48644792Y-105719896D01*
X48644786Y-105719890D01*
X48472820Y-105594951D01*
X48283414Y-105498444D01*
X48283413Y-105498443D01*
X48283412Y-105498443D01*
X48081243Y-105432754D01*
X48081241Y-105432753D01*
X48081240Y-105432753D01*
X47919957Y-105407208D01*
X47871287Y-105399500D01*
X47658713Y-105399500D01*
X47610042Y-105407208D01*
X47448760Y-105432753D01*
X47246585Y-105498444D01*
X47057179Y-105594951D01*
X46885215Y-105719889D01*
X46771673Y-105833431D01*
X46710350Y-105866915D01*
X46640658Y-105861931D01*
X46584725Y-105820059D01*
X46567810Y-105789082D01*
X46518797Y-105657671D01*
X46518793Y-105657664D01*
X46432547Y-105542455D01*
X46432544Y-105542452D01*
X46317335Y-105456206D01*
X46317328Y-105456202D01*
X46182482Y-105405908D01*
X46182483Y-105405908D01*
X46122883Y-105399501D01*
X46122881Y-105399500D01*
X46122873Y-105399500D01*
X46122864Y-105399500D01*
X44327129Y-105399500D01*
X44327123Y-105399501D01*
X44267516Y-105405908D01*
X44132671Y-105456202D01*
X44132664Y-105456206D01*
X44017455Y-105542452D01*
X44017452Y-105542455D01*
X43931206Y-105657664D01*
X43931202Y-105657671D01*
X43880908Y-105792517D01*
X43874501Y-105852116D01*
X43874501Y-105852123D01*
X43874500Y-105852135D01*
X43874500Y-107647870D01*
X43874501Y-107647876D01*
X43880908Y-107707483D01*
X43931202Y-107842328D01*
X43931206Y-107842335D01*
X44017452Y-107957544D01*
X44017455Y-107957547D01*
X44132664Y-108043793D01*
X44132671Y-108043797D01*
X44177618Y-108060561D01*
X44267517Y-108094091D01*
X44327127Y-108100500D01*
X44500500Y-108100499D01*
X44509185Y-108103049D01*
X44518147Y-108101761D01*
X44542184Y-108112738D01*
X44567539Y-108120183D01*
X44573467Y-108127025D01*
X44581703Y-108130786D01*
X44595989Y-108153017D01*
X44613294Y-108172987D01*
X44615581Y-108183502D01*
X44619477Y-108189564D01*
X44624500Y-108224499D01*
X44624500Y-108425500D01*
X44604815Y-108492539D01*
X44552011Y-108538294D01*
X44500500Y-108549500D01*
X36759085Y-108549500D01*
X36692046Y-108529815D01*
X36646291Y-108477011D01*
X36636347Y-108407853D01*
X36659819Y-108351189D01*
X36748793Y-108232335D01*
X36748792Y-108232335D01*
X36748796Y-108232331D01*
X36799091Y-108097483D01*
X36805500Y-108037873D01*
X36805499Y-106242128D01*
X36799091Y-106182517D01*
X36771967Y-106109795D01*
X36748797Y-106047671D01*
X36748793Y-106047664D01*
X36662547Y-105932455D01*
X36662544Y-105932452D01*
X36547335Y-105846206D01*
X36547328Y-105846202D01*
X36415917Y-105797189D01*
X36359983Y-105755318D01*
X36335566Y-105689853D01*
X36350418Y-105621580D01*
X36371563Y-105593332D01*
X36485104Y-105479792D01*
X36538784Y-105405908D01*
X36610048Y-105307820D01*
X36610047Y-105307820D01*
X36610051Y-105307816D01*
X36706557Y-105118412D01*
X36772246Y-104916243D01*
X36805500Y-104706287D01*
X36805500Y-104493713D01*
X36772246Y-104283757D01*
X36706557Y-104081588D01*
X36610051Y-103892184D01*
X36610049Y-103892181D01*
X36610048Y-103892179D01*
X36485109Y-103720213D01*
X36334786Y-103569890D01*
X36162820Y-103444951D01*
X36162115Y-103444591D01*
X36154054Y-103440485D01*
X36103259Y-103392512D01*
X36086463Y-103324692D01*
X36108999Y-103258556D01*
X36154054Y-103219515D01*
X36162816Y-103215051D01*
X36184789Y-103199086D01*
X36334786Y-103090109D01*
X36334788Y-103090106D01*
X36334792Y-103090104D01*
X36485104Y-102939792D01*
X36485106Y-102939788D01*
X36485109Y-102939786D01*
X36610048Y-102767820D01*
X36610047Y-102767820D01*
X36610051Y-102767816D01*
X36706557Y-102578412D01*
X36772246Y-102376243D01*
X36805500Y-102166287D01*
X36805500Y-101953713D01*
X36772246Y-101743757D01*
X36706557Y-101541588D01*
X36610051Y-101352184D01*
X36610049Y-101352181D01*
X36610048Y-101352179D01*
X36485109Y-101180213D01*
X36334786Y-101029890D01*
X36162820Y-100904951D01*
X36162115Y-100904591D01*
X36154054Y-100900485D01*
X36103259Y-100852512D01*
X36086463Y-100784692D01*
X36108999Y-100718556D01*
X36154054Y-100679515D01*
X36162816Y-100675051D01*
X36272600Y-100595289D01*
X36334786Y-100550109D01*
X36334788Y-100550106D01*
X36334792Y-100550104D01*
X36485104Y-100399792D01*
X36485106Y-100399788D01*
X36485109Y-100399786D01*
X36610048Y-100227820D01*
X36610047Y-100227820D01*
X36610051Y-100227816D01*
X36706557Y-100038412D01*
X36772246Y-99836243D01*
X36805500Y-99626287D01*
X36805500Y-99413713D01*
X36772246Y-99203757D01*
X36706557Y-99001588D01*
X36610051Y-98812184D01*
X36610049Y-98812181D01*
X36610048Y-98812179D01*
X36485109Y-98640213D01*
X36334786Y-98489890D01*
X36162820Y-98364951D01*
X36162115Y-98364591D01*
X36154054Y-98360485D01*
X36103259Y-98312512D01*
X36086463Y-98244692D01*
X36108999Y-98178556D01*
X36154054Y-98139515D01*
X36162816Y-98135051D01*
X36196900Y-98110288D01*
X36334786Y-98010109D01*
X36334788Y-98010106D01*
X36334792Y-98010104D01*
X36485104Y-97859792D01*
X36485106Y-97859788D01*
X36485109Y-97859786D01*
X36610048Y-97687820D01*
X36610047Y-97687820D01*
X36610051Y-97687816D01*
X36706557Y-97498412D01*
X36772246Y-97296243D01*
X36805500Y-97086287D01*
X36805500Y-96873713D01*
X36772246Y-96663757D01*
X36706557Y-96461588D01*
X36610051Y-96272184D01*
X36610049Y-96272181D01*
X36610048Y-96272179D01*
X36485109Y-96100213D01*
X36334786Y-95949890D01*
X36162820Y-95824951D01*
X36162115Y-95824591D01*
X36154054Y-95820485D01*
X36103259Y-95772512D01*
X36086463Y-95704692D01*
X36108999Y-95638556D01*
X36154054Y-95599515D01*
X36162816Y-95595051D01*
X36184789Y-95579086D01*
X36334786Y-95470109D01*
X36334788Y-95470106D01*
X36334792Y-95470104D01*
X36485104Y-95319792D01*
X36485106Y-95319788D01*
X36485109Y-95319786D01*
X36610048Y-95147820D01*
X36610047Y-95147820D01*
X36610051Y-95147816D01*
X36706557Y-94958412D01*
X36772246Y-94756243D01*
X36805500Y-94546287D01*
X36805500Y-94333713D01*
X36772246Y-94123757D01*
X36706557Y-93921588D01*
X36610051Y-93732184D01*
X36610049Y-93732181D01*
X36610048Y-93732179D01*
X36485109Y-93560213D01*
X36334786Y-93409890D01*
X36162820Y-93284951D01*
X36162115Y-93284591D01*
X36154054Y-93280485D01*
X36103259Y-93232512D01*
X36086463Y-93164692D01*
X36108999Y-93098556D01*
X36154054Y-93059515D01*
X36162816Y-93055051D01*
X36184789Y-93039086D01*
X36334786Y-92930109D01*
X36334788Y-92930106D01*
X36334792Y-92930104D01*
X36485104Y-92779792D01*
X36485106Y-92779788D01*
X36485109Y-92779786D01*
X36610048Y-92607820D01*
X36610047Y-92607820D01*
X36610051Y-92607816D01*
X36706557Y-92418412D01*
X36772246Y-92216243D01*
X36805500Y-92006287D01*
X36805500Y-91793713D01*
X36772246Y-91583757D01*
X36706557Y-91381588D01*
X36610051Y-91192184D01*
X36610049Y-91192181D01*
X36610048Y-91192179D01*
X36485109Y-91020213D01*
X36334786Y-90869890D01*
X36162820Y-90744951D01*
X36162115Y-90744591D01*
X36154054Y-90740485D01*
X36103259Y-90692512D01*
X36086463Y-90624692D01*
X36108999Y-90558556D01*
X36154054Y-90519515D01*
X36162816Y-90515051D01*
X36184789Y-90499086D01*
X36334786Y-90390109D01*
X36334788Y-90390106D01*
X36334792Y-90390104D01*
X36485104Y-90239792D01*
X36485106Y-90239788D01*
X36485109Y-90239786D01*
X36610048Y-90067820D01*
X36610047Y-90067820D01*
X36610051Y-90067816D01*
X36706557Y-89878412D01*
X36772246Y-89676243D01*
X36805500Y-89466287D01*
X36805500Y-89253713D01*
X36772246Y-89043757D01*
X36706557Y-88841588D01*
X36610051Y-88652184D01*
X36610049Y-88652181D01*
X36610048Y-88652179D01*
X36485109Y-88480213D01*
X36334786Y-88329890D01*
X36162820Y-88204951D01*
X35973414Y-88108444D01*
X35973413Y-88108443D01*
X35973412Y-88108443D01*
X35771243Y-88042754D01*
X35771241Y-88042753D01*
X35771240Y-88042753D01*
X35609957Y-88017208D01*
X35561287Y-88009500D01*
X35348713Y-88009500D01*
X35300042Y-88017208D01*
X35138760Y-88042753D01*
X34936585Y-88108444D01*
X34747179Y-88204951D01*
X34575213Y-88329890D01*
X34424890Y-88480213D01*
X34299951Y-88652179D01*
X34203444Y-88841585D01*
X34137753Y-89043760D01*
X34104500Y-89253713D01*
X34104500Y-89466286D01*
X34137753Y-89676239D01*
X34203444Y-89878414D01*
X34299951Y-90067820D01*
X34424890Y-90239786D01*
X34575213Y-90390109D01*
X34747182Y-90515050D01*
X34755946Y-90519516D01*
X34806742Y-90567491D01*
X34823536Y-90635312D01*
X34800998Y-90701447D01*
X34755946Y-90740484D01*
X34747182Y-90744949D01*
X34575213Y-90869890D01*
X34424890Y-91020213D01*
X34299951Y-91192179D01*
X34203444Y-91381585D01*
X34137753Y-91583760D01*
X34104500Y-91793713D01*
X34104500Y-92006286D01*
X34137753Y-92216239D01*
X34203444Y-92418414D01*
X34299951Y-92607820D01*
X34424890Y-92779786D01*
X34575213Y-92930109D01*
X34747182Y-93055050D01*
X34755946Y-93059516D01*
X34806742Y-93107491D01*
X34823536Y-93175312D01*
X34800998Y-93241447D01*
X34755946Y-93280484D01*
X34747182Y-93284949D01*
X34575213Y-93409890D01*
X34424890Y-93560213D01*
X34299951Y-93732179D01*
X34203444Y-93921585D01*
X34137753Y-94123760D01*
X34104500Y-94333713D01*
X34104500Y-94546286D01*
X34137753Y-94756239D01*
X34203444Y-94958414D01*
X34299951Y-95147820D01*
X34424890Y-95319786D01*
X34575213Y-95470109D01*
X34747182Y-95595050D01*
X34755946Y-95599516D01*
X34806742Y-95647491D01*
X34823536Y-95715312D01*
X34800998Y-95781447D01*
X34755946Y-95820484D01*
X34747182Y-95824949D01*
X34575213Y-95949890D01*
X34424890Y-96100213D01*
X34299951Y-96272179D01*
X34203444Y-96461585D01*
X34137753Y-96663760D01*
X34104500Y-96873713D01*
X34104500Y-97086287D01*
X34137754Y-97296243D01*
X34160585Y-97366510D01*
X34203444Y-97498414D01*
X34299951Y-97687820D01*
X34424890Y-97859786D01*
X34575213Y-98010109D01*
X34747182Y-98135050D01*
X34755946Y-98139516D01*
X34806742Y-98187491D01*
X34823536Y-98255312D01*
X34800998Y-98321447D01*
X34755946Y-98360484D01*
X34747182Y-98364949D01*
X34575213Y-98489890D01*
X34424890Y-98640213D01*
X34299951Y-98812179D01*
X34203444Y-99001585D01*
X34137753Y-99203760D01*
X34104500Y-99413713D01*
X34104500Y-99626287D01*
X34137754Y-99836243D01*
X34192961Y-100006153D01*
X34203444Y-100038414D01*
X34299951Y-100227820D01*
X34424890Y-100399786D01*
X34575213Y-100550109D01*
X34747182Y-100675050D01*
X34755946Y-100679516D01*
X34806742Y-100727491D01*
X34823536Y-100795312D01*
X34800998Y-100861447D01*
X34755946Y-100900484D01*
X34747182Y-100904949D01*
X34575213Y-101029890D01*
X34424890Y-101180213D01*
X34299951Y-101352179D01*
X34203444Y-101541585D01*
X34137753Y-101743760D01*
X34104500Y-101953713D01*
X34104500Y-102166286D01*
X34137753Y-102376239D01*
X34203444Y-102578414D01*
X34299951Y-102767820D01*
X34424890Y-102939786D01*
X34575213Y-103090109D01*
X34747182Y-103215050D01*
X34755946Y-103219516D01*
X34806742Y-103267491D01*
X34823536Y-103335312D01*
X34800998Y-103401447D01*
X34755946Y-103440484D01*
X34747182Y-103444949D01*
X34575213Y-103569890D01*
X34424890Y-103720213D01*
X34299951Y-103892179D01*
X34203444Y-104081585D01*
X34137753Y-104283760D01*
X34104500Y-104493713D01*
X34104500Y-104706286D01*
X34137753Y-104916239D01*
X34203444Y-105118414D01*
X34299951Y-105307820D01*
X34424890Y-105479786D01*
X34538430Y-105593326D01*
X34571915Y-105654649D01*
X34566931Y-105724341D01*
X34525059Y-105780274D01*
X34494083Y-105797189D01*
X34362669Y-105846203D01*
X34362664Y-105846206D01*
X34247455Y-105932452D01*
X34247452Y-105932455D01*
X34161206Y-106047664D01*
X34161202Y-106047671D01*
X34110908Y-106182517D01*
X34105633Y-106231585D01*
X34104501Y-106242123D01*
X34104500Y-106242135D01*
X34104500Y-108037870D01*
X34104501Y-108037876D01*
X34110908Y-108097483D01*
X34161202Y-108232328D01*
X34161206Y-108232335D01*
X34250181Y-108351189D01*
X34274599Y-108416653D01*
X34259748Y-108484926D01*
X34210343Y-108534332D01*
X34150915Y-108549500D01*
X33824500Y-108549500D01*
X33757461Y-108529815D01*
X33711706Y-108477011D01*
X33700500Y-108425500D01*
X33700500Y-78201153D01*
X35749500Y-78201153D01*
X35749500Y-78358846D01*
X35780261Y-78513489D01*
X35780264Y-78513501D01*
X35840602Y-78659172D01*
X35840609Y-78659185D01*
X35928210Y-78790288D01*
X35928213Y-78790292D01*
X36039707Y-78901786D01*
X36039711Y-78901789D01*
X36170814Y-78989390D01*
X36170827Y-78989397D01*
X36316498Y-79049735D01*
X36316503Y-79049737D01*
X36471153Y-79080499D01*
X36471156Y-79080500D01*
X36471158Y-79080500D01*
X36628844Y-79080500D01*
X36628845Y-79080499D01*
X36783497Y-79049737D01*
X36929179Y-78989394D01*
X37060289Y-78901789D01*
X37171789Y-78790289D01*
X37259394Y-78659179D01*
X37319737Y-78513497D01*
X37350500Y-78358842D01*
X37350500Y-78221153D01*
X37599500Y-78221153D01*
X37599500Y-78378846D01*
X37630261Y-78533489D01*
X37630264Y-78533501D01*
X37690602Y-78679172D01*
X37690609Y-78679185D01*
X37778210Y-78810288D01*
X37778213Y-78810292D01*
X37889707Y-78921786D01*
X37889711Y-78921789D01*
X38020814Y-79009390D01*
X38020827Y-79009397D01*
X38166498Y-79069735D01*
X38166503Y-79069737D01*
X38321153Y-79100499D01*
X38321156Y-79100500D01*
X38321158Y-79100500D01*
X38478844Y-79100500D01*
X38478845Y-79100499D01*
X38633497Y-79069737D01*
X38779179Y-79009394D01*
X38821246Y-78981286D01*
X38910875Y-78921398D01*
X38977553Y-78900520D01*
X38979766Y-78900500D01*
X40324903Y-78900500D01*
X40391942Y-78920185D01*
X40412584Y-78936819D01*
X57363181Y-95887416D01*
X57396666Y-95948739D01*
X57399500Y-95975097D01*
X57399500Y-97020234D01*
X57379815Y-97087273D01*
X57378602Y-97089125D01*
X57290609Y-97220814D01*
X57290602Y-97220827D01*
X57230264Y-97366498D01*
X57230261Y-97366510D01*
X57199500Y-97521153D01*
X57199500Y-97678846D01*
X57230261Y-97833489D01*
X57230264Y-97833501D01*
X57290602Y-97979172D01*
X57290609Y-97979185D01*
X57378210Y-98110288D01*
X57378213Y-98110292D01*
X57489707Y-98221786D01*
X57489711Y-98221789D01*
X57620814Y-98309390D01*
X57620827Y-98309397D01*
X57754948Y-98364951D01*
X57766503Y-98369737D01*
X57921153Y-98400499D01*
X57921156Y-98400500D01*
X57921158Y-98400500D01*
X58078844Y-98400500D01*
X58078845Y-98400499D01*
X58233497Y-98369737D01*
X58350080Y-98321447D01*
X58379172Y-98309397D01*
X58379172Y-98309396D01*
X58379179Y-98309394D01*
X58510289Y-98221789D01*
X58621789Y-98110289D01*
X58709394Y-97979179D01*
X58769737Y-97833497D01*
X58800500Y-97678842D01*
X58800500Y-97521158D01*
X58800500Y-97521155D01*
X58800499Y-97521153D01*
X58795976Y-97498414D01*
X58769737Y-97366503D01*
X58740633Y-97296239D01*
X58709397Y-97220827D01*
X58709390Y-97220814D01*
X58621398Y-97089125D01*
X58600520Y-97022447D01*
X58600500Y-97020234D01*
X58600500Y-95764060D01*
X58600501Y-95764047D01*
X58600501Y-95595944D01*
X58600262Y-95595051D01*
X58559577Y-95443216D01*
X58488319Y-95319792D01*
X58480524Y-95306290D01*
X58480518Y-95306282D01*
X41112590Y-77938355D01*
X41112588Y-77938352D01*
X40993717Y-77819481D01*
X40993716Y-77819480D01*
X40906904Y-77769360D01*
X40906904Y-77769359D01*
X40906900Y-77769358D01*
X40856785Y-77740423D01*
X40704057Y-77699499D01*
X40545943Y-77699499D01*
X40538347Y-77699499D01*
X40538331Y-77699500D01*
X38979766Y-77699500D01*
X38912727Y-77679815D01*
X38910875Y-77678602D01*
X38779185Y-77590609D01*
X38779172Y-77590602D01*
X38633501Y-77530264D01*
X38633489Y-77530261D01*
X38478845Y-77499500D01*
X38478842Y-77499500D01*
X38321158Y-77499500D01*
X38321155Y-77499500D01*
X38166510Y-77530261D01*
X38166498Y-77530264D01*
X38020827Y-77590602D01*
X38020814Y-77590609D01*
X37889711Y-77678210D01*
X37889707Y-77678213D01*
X37778213Y-77789707D01*
X37778210Y-77789711D01*
X37690609Y-77920814D01*
X37690602Y-77920827D01*
X37630264Y-78066498D01*
X37630261Y-78066510D01*
X37599500Y-78221153D01*
X37350500Y-78221153D01*
X37350500Y-78201158D01*
X37350500Y-78201155D01*
X37350499Y-78201153D01*
X37343741Y-78167179D01*
X37319737Y-78046503D01*
X37272013Y-77931286D01*
X37259397Y-77900827D01*
X37259390Y-77900814D01*
X37191370Y-77799015D01*
X37170492Y-77732337D01*
X37188977Y-77664957D01*
X37206787Y-77642447D01*
X43412416Y-71436819D01*
X43473739Y-71403334D01*
X43500097Y-71400500D01*
X49788331Y-71400500D01*
X49788347Y-71400501D01*
X49795943Y-71400501D01*
X49954054Y-71400501D01*
X49954057Y-71400501D01*
X50106785Y-71359577D01*
X50156904Y-71330639D01*
X50243716Y-71280520D01*
X50355520Y-71168716D01*
X50355520Y-71168714D01*
X50365728Y-71158507D01*
X50365729Y-71158504D01*
X53707099Y-67817135D01*
X57949500Y-67817135D01*
X57949500Y-69612870D01*
X57949501Y-69612876D01*
X57955908Y-69672483D01*
X58006202Y-69807328D01*
X58006206Y-69807335D01*
X58092452Y-69922544D01*
X58092455Y-69922547D01*
X58207664Y-70008793D01*
X58207671Y-70008797D01*
X58339082Y-70057810D01*
X58395016Y-70099681D01*
X58419433Y-70165145D01*
X58404582Y-70233418D01*
X58383431Y-70261673D01*
X58269889Y-70375215D01*
X58144951Y-70547179D01*
X58048444Y-70736585D01*
X57982753Y-70938760D01*
X57949500Y-71148713D01*
X57949500Y-71361286D01*
X57982753Y-71571239D01*
X58048444Y-71773414D01*
X58144951Y-71962820D01*
X58269890Y-72134786D01*
X58420213Y-72285109D01*
X58592182Y-72410050D01*
X58600946Y-72414516D01*
X58651742Y-72462491D01*
X58668536Y-72530312D01*
X58645998Y-72596447D01*
X58600946Y-72635484D01*
X58592182Y-72639949D01*
X58420213Y-72764890D01*
X58269890Y-72915213D01*
X58144951Y-73087179D01*
X58048444Y-73276585D01*
X57982753Y-73478760D01*
X57949500Y-73688713D01*
X57949500Y-73901287D01*
X57982754Y-74111243D01*
X58025078Y-74241503D01*
X58048444Y-74313414D01*
X58144951Y-74502820D01*
X58269890Y-74674786D01*
X58420213Y-74825109D01*
X58592182Y-74950050D01*
X58600946Y-74954516D01*
X58651742Y-75002491D01*
X58668536Y-75070312D01*
X58645998Y-75136447D01*
X58600946Y-75175484D01*
X58592182Y-75179949D01*
X58420213Y-75304890D01*
X58269890Y-75455213D01*
X58144951Y-75627179D01*
X58048444Y-75816585D01*
X57982753Y-76018760D01*
X57949500Y-76228713D01*
X57949500Y-76441286D01*
X57982753Y-76651239D01*
X58048444Y-76853414D01*
X58144951Y-77042820D01*
X58269890Y-77214786D01*
X58420213Y-77365109D01*
X58592182Y-77490050D01*
X58600946Y-77494516D01*
X58651742Y-77542491D01*
X58668536Y-77610312D01*
X58645998Y-77676447D01*
X58600946Y-77715484D01*
X58592182Y-77719949D01*
X58420213Y-77844890D01*
X58269890Y-77995213D01*
X58144951Y-78167179D01*
X58048444Y-78356585D01*
X57982753Y-78558760D01*
X57963682Y-78679172D01*
X57949500Y-78768713D01*
X57949500Y-78981287D01*
X57950784Y-78989394D01*
X57982753Y-79191239D01*
X58048444Y-79393414D01*
X58144951Y-79582820D01*
X58269890Y-79754786D01*
X58420213Y-79905109D01*
X58592182Y-80030050D01*
X58600946Y-80034516D01*
X58651742Y-80082491D01*
X58668536Y-80150312D01*
X58645998Y-80216447D01*
X58600946Y-80255484D01*
X58592182Y-80259949D01*
X58420213Y-80384890D01*
X58269890Y-80535213D01*
X58144951Y-80707179D01*
X58048444Y-80896585D01*
X57982753Y-81098760D01*
X57949500Y-81308713D01*
X57949500Y-81521286D01*
X57982753Y-81731239D01*
X58048444Y-81933414D01*
X58144951Y-82122820D01*
X58269890Y-82294786D01*
X58420213Y-82445109D01*
X58592182Y-82570050D01*
X58600946Y-82574516D01*
X58651742Y-82622491D01*
X58668536Y-82690312D01*
X58645998Y-82756447D01*
X58600946Y-82795484D01*
X58592182Y-82799949D01*
X58420213Y-82924890D01*
X58269890Y-83075213D01*
X58144951Y-83247179D01*
X58048444Y-83436585D01*
X57982753Y-83638760D01*
X57949500Y-83848713D01*
X57949500Y-84061286D01*
X57982753Y-84271239D01*
X58048444Y-84473414D01*
X58144951Y-84662820D01*
X58269890Y-84834786D01*
X58420213Y-84985109D01*
X58592182Y-85110050D01*
X58600946Y-85114516D01*
X58651742Y-85162491D01*
X58668536Y-85230312D01*
X58645998Y-85296447D01*
X58600946Y-85335484D01*
X58592182Y-85339949D01*
X58420213Y-85464890D01*
X58269890Y-85615213D01*
X58144951Y-85787179D01*
X58048444Y-85976585D01*
X57982753Y-86178760D01*
X57949500Y-86388713D01*
X57949500Y-86601286D01*
X57982753Y-86811239D01*
X58048444Y-87013414D01*
X58144951Y-87202820D01*
X58269890Y-87374786D01*
X58420213Y-87525109D01*
X58592179Y-87650048D01*
X58592181Y-87650049D01*
X58592184Y-87650051D01*
X58781588Y-87746557D01*
X58983757Y-87812246D01*
X59193713Y-87845500D01*
X59193714Y-87845500D01*
X59406286Y-87845500D01*
X59406287Y-87845500D01*
X59616243Y-87812246D01*
X59818412Y-87746557D01*
X60007816Y-87650051D01*
X60029789Y-87634086D01*
X60179786Y-87525109D01*
X60179788Y-87525106D01*
X60179792Y-87525104D01*
X60330104Y-87374792D01*
X60330106Y-87374788D01*
X60330109Y-87374786D01*
X60455048Y-87202820D01*
X60455047Y-87202820D01*
X60455051Y-87202816D01*
X60551557Y-87013412D01*
X60617246Y-86811243D01*
X60650500Y-86601287D01*
X60650500Y-86388713D01*
X60617246Y-86178757D01*
X60551557Y-85976588D01*
X60455051Y-85787184D01*
X60455049Y-85787181D01*
X60455048Y-85787179D01*
X60330109Y-85615213D01*
X60179786Y-85464890D01*
X60007820Y-85339951D01*
X60007115Y-85339591D01*
X59999054Y-85335485D01*
X59948259Y-85287512D01*
X59931463Y-85219692D01*
X59953999Y-85153556D01*
X59999054Y-85114515D01*
X60007816Y-85110051D01*
X60029789Y-85094086D01*
X60179786Y-84985109D01*
X60179788Y-84985106D01*
X60179792Y-84985104D01*
X60330104Y-84834792D01*
X60330106Y-84834788D01*
X60330109Y-84834786D01*
X60455048Y-84662820D01*
X60455047Y-84662820D01*
X60455051Y-84662816D01*
X60551557Y-84473412D01*
X60617246Y-84271243D01*
X60650500Y-84061287D01*
X60650500Y-83848713D01*
X60617246Y-83638757D01*
X60551557Y-83436588D01*
X60455051Y-83247184D01*
X60455049Y-83247181D01*
X60455048Y-83247179D01*
X60330109Y-83075213D01*
X60179786Y-82924890D01*
X60007820Y-82799951D01*
X60007115Y-82799591D01*
X59999054Y-82795485D01*
X59948259Y-82747512D01*
X59931463Y-82679692D01*
X59953999Y-82613556D01*
X59999054Y-82574515D01*
X60007816Y-82570051D01*
X60029789Y-82554086D01*
X60179786Y-82445109D01*
X60179788Y-82445106D01*
X60179792Y-82445104D01*
X60330104Y-82294792D01*
X60330106Y-82294788D01*
X60330109Y-82294786D01*
X60455048Y-82122820D01*
X60455047Y-82122820D01*
X60455051Y-82122816D01*
X60551557Y-81933412D01*
X60617246Y-81731243D01*
X60650500Y-81521287D01*
X60650500Y-81308713D01*
X60617246Y-81098757D01*
X60551557Y-80896588D01*
X60455051Y-80707184D01*
X60455049Y-80707181D01*
X60455048Y-80707179D01*
X60330109Y-80535213D01*
X60179786Y-80384890D01*
X60007820Y-80259951D01*
X60007115Y-80259591D01*
X59999054Y-80255485D01*
X59948259Y-80207512D01*
X59931463Y-80139692D01*
X59953999Y-80073556D01*
X59999054Y-80034515D01*
X60007816Y-80030051D01*
X60029789Y-80014086D01*
X60179786Y-79905109D01*
X60179788Y-79905106D01*
X60179792Y-79905104D01*
X60330104Y-79754792D01*
X60330106Y-79754788D01*
X60330109Y-79754786D01*
X60455048Y-79582820D01*
X60455047Y-79582820D01*
X60455051Y-79582816D01*
X60551557Y-79393412D01*
X60617246Y-79191243D01*
X60650500Y-78981287D01*
X60650500Y-78768713D01*
X60617246Y-78558757D01*
X60551557Y-78356588D01*
X60455051Y-78167184D01*
X60455049Y-78167181D01*
X60455048Y-78167179D01*
X60330109Y-77995213D01*
X60179786Y-77844890D01*
X60007820Y-77719951D01*
X60007115Y-77719591D01*
X59999054Y-77715485D01*
X59948259Y-77667512D01*
X59931463Y-77599692D01*
X59953999Y-77533556D01*
X59999054Y-77494515D01*
X60007816Y-77490051D01*
X60029789Y-77474086D01*
X60179786Y-77365109D01*
X60179788Y-77365106D01*
X60179792Y-77365104D01*
X60330104Y-77214792D01*
X60330106Y-77214788D01*
X60330109Y-77214786D01*
X60455048Y-77042820D01*
X60455047Y-77042820D01*
X60455051Y-77042816D01*
X60551557Y-76853412D01*
X60617246Y-76651243D01*
X60650500Y-76441287D01*
X60650500Y-76228713D01*
X60617246Y-76018757D01*
X60551557Y-75816588D01*
X60455051Y-75627184D01*
X60455049Y-75627181D01*
X60455048Y-75627179D01*
X60330109Y-75455213D01*
X60179786Y-75304890D01*
X60007820Y-75179951D01*
X60007115Y-75179591D01*
X59999054Y-75175485D01*
X59948259Y-75127512D01*
X59931463Y-75059692D01*
X59953999Y-74993556D01*
X59999054Y-74954515D01*
X60007816Y-74950051D01*
X60029789Y-74934086D01*
X60179786Y-74825109D01*
X60179788Y-74825106D01*
X60179792Y-74825104D01*
X60330104Y-74674792D01*
X60330106Y-74674788D01*
X60330109Y-74674786D01*
X60455048Y-74502820D01*
X60455047Y-74502820D01*
X60455051Y-74502816D01*
X60551557Y-74313412D01*
X60617246Y-74111243D01*
X60650500Y-73901287D01*
X60650500Y-73688713D01*
X60617246Y-73478757D01*
X60551557Y-73276588D01*
X60455051Y-73087184D01*
X60455049Y-73087181D01*
X60455048Y-73087179D01*
X60330109Y-72915213D01*
X60179786Y-72764890D01*
X60007820Y-72639951D01*
X60007115Y-72639591D01*
X59999054Y-72635485D01*
X59948259Y-72587512D01*
X59931463Y-72519692D01*
X59953999Y-72453556D01*
X59999054Y-72414515D01*
X60007816Y-72410051D01*
X60029789Y-72394086D01*
X60179786Y-72285109D01*
X60179788Y-72285106D01*
X60179792Y-72285104D01*
X60330104Y-72134792D01*
X60330106Y-72134788D01*
X60330109Y-72134786D01*
X60455048Y-71962820D01*
X60455047Y-71962820D01*
X60455051Y-71962816D01*
X60551557Y-71773412D01*
X60617246Y-71571243D01*
X60650500Y-71361287D01*
X60650500Y-71148713D01*
X60617246Y-70938757D01*
X60551557Y-70736588D01*
X60455051Y-70547184D01*
X60455049Y-70547181D01*
X60455048Y-70547179D01*
X60330109Y-70375213D01*
X60216569Y-70261673D01*
X60183084Y-70200350D01*
X60188068Y-70130658D01*
X60229940Y-70074725D01*
X60260915Y-70057810D01*
X60392331Y-70008796D01*
X60507546Y-69922546D01*
X60593796Y-69807331D01*
X60644091Y-69672483D01*
X60650500Y-69612873D01*
X60650499Y-67817128D01*
X60644091Y-67757517D01*
X60623564Y-67702482D01*
X60593797Y-67622671D01*
X60593793Y-67622664D01*
X60507547Y-67507455D01*
X60507544Y-67507452D01*
X60392335Y-67421206D01*
X60392328Y-67421202D01*
X60257482Y-67370908D01*
X60257483Y-67370908D01*
X60197883Y-67364501D01*
X60197881Y-67364500D01*
X60197873Y-67364500D01*
X60197864Y-67364500D01*
X58402129Y-67364500D01*
X58402123Y-67364501D01*
X58342516Y-67370908D01*
X58207671Y-67421202D01*
X58207664Y-67421206D01*
X58092455Y-67507452D01*
X58092452Y-67507455D01*
X58006206Y-67622664D01*
X58006202Y-67622671D01*
X57955908Y-67757517D01*
X57950792Y-67805109D01*
X57949501Y-67817123D01*
X57949500Y-67817135D01*
X53707099Y-67817135D01*
X57337416Y-64186819D01*
X57364343Y-64172115D01*
X57390162Y-64155523D01*
X57396362Y-64154631D01*
X57398739Y-64153334D01*
X57425097Y-64150500D01*
X57470234Y-64150500D01*
X57537273Y-64170185D01*
X57539125Y-64171398D01*
X57670814Y-64259390D01*
X57670827Y-64259397D01*
X57816498Y-64319735D01*
X57816503Y-64319737D01*
X57971153Y-64350499D01*
X57971156Y-64350500D01*
X57971158Y-64350500D01*
X58128844Y-64350500D01*
X58128845Y-64350499D01*
X58283497Y-64319737D01*
X58429179Y-64259394D01*
X58560289Y-64171789D01*
X58671789Y-64060289D01*
X58759394Y-63929179D01*
X58819737Y-63783497D01*
X58850500Y-63628842D01*
X58850500Y-63471158D01*
X58850500Y-63471155D01*
X58850499Y-63471153D01*
X58819737Y-63316503D01*
X58761082Y-63174896D01*
X58759397Y-63170827D01*
X58759390Y-63170814D01*
X58671789Y-63039711D01*
X58671786Y-63039707D01*
X58560292Y-62928213D01*
X58560288Y-62928210D01*
X58429185Y-62840609D01*
X58429172Y-62840602D01*
X58283501Y-62780264D01*
X58283489Y-62780261D01*
X58128845Y-62749500D01*
X58128842Y-62749500D01*
X57971158Y-62749500D01*
X57971155Y-62749500D01*
X57816510Y-62780261D01*
X57816498Y-62780264D01*
X57670827Y-62840602D01*
X57670814Y-62840609D01*
X57539125Y-62928602D01*
X57472447Y-62949480D01*
X57470234Y-62949500D01*
X57204057Y-62949500D01*
X57045942Y-62949500D01*
X57032962Y-62952977D01*
X57031223Y-62953444D01*
X57031222Y-62953443D01*
X56893214Y-62990423D01*
X56893209Y-62990426D01*
X56756290Y-63069475D01*
X56756282Y-63069481D01*
X56644478Y-63181286D01*
X49662584Y-70163181D01*
X49601261Y-70196666D01*
X49574903Y-70199500D01*
X43279057Y-70199500D01*
X43120942Y-70199500D01*
X42968215Y-70240423D01*
X42968214Y-70240423D01*
X42968212Y-70240424D01*
X42968209Y-70240425D01*
X42918096Y-70269359D01*
X42918095Y-70269360D01*
X42874689Y-70294420D01*
X42831285Y-70319479D01*
X42831282Y-70319481D01*
X36069481Y-77081282D01*
X36069479Y-77081285D01*
X36019361Y-77168094D01*
X36019359Y-77168096D01*
X35990425Y-77218209D01*
X35990424Y-77218210D01*
X35990423Y-77218215D01*
X35949499Y-77370943D01*
X35949499Y-77370945D01*
X35949499Y-77539046D01*
X35949500Y-77539059D01*
X35949500Y-77700234D01*
X35929815Y-77767273D01*
X35928602Y-77769125D01*
X35840609Y-77900814D01*
X35840602Y-77900827D01*
X35780264Y-78046498D01*
X35780261Y-78046510D01*
X35749500Y-78201153D01*
X33700500Y-78201153D01*
X33700500Y-76329765D01*
X33720185Y-76262726D01*
X33721398Y-76260874D01*
X33809390Y-76129185D01*
X33809390Y-76129184D01*
X33809394Y-76129179D01*
X33869737Y-75983497D01*
X33900500Y-75828842D01*
X33900500Y-75671158D01*
X33900500Y-75671155D01*
X33900499Y-75671153D01*
X33869738Y-75516510D01*
X33869737Y-75516503D01*
X33844348Y-75455208D01*
X33809397Y-75370827D01*
X33809390Y-75370814D01*
X33721398Y-75239125D01*
X33700520Y-75172447D01*
X33700500Y-75170234D01*
X33700500Y-48858713D01*
X34224500Y-48858713D01*
X34224500Y-49071286D01*
X34257753Y-49281239D01*
X34323444Y-49483414D01*
X34419951Y-49672820D01*
X34544890Y-49844786D01*
X34695213Y-49995109D01*
X34867182Y-50120050D01*
X34875946Y-50124516D01*
X34926742Y-50172491D01*
X34943536Y-50240312D01*
X34920998Y-50306447D01*
X34875946Y-50345484D01*
X34867182Y-50349949D01*
X34695213Y-50474890D01*
X34544890Y-50625213D01*
X34419951Y-50797179D01*
X34323444Y-50986585D01*
X34257753Y-51188760D01*
X34224500Y-51398713D01*
X34224500Y-51611286D01*
X34257753Y-51821239D01*
X34323444Y-52023414D01*
X34419951Y-52212820D01*
X34544890Y-52384786D01*
X34695213Y-52535109D01*
X34867182Y-52660050D01*
X34875946Y-52664516D01*
X34926742Y-52712491D01*
X34943536Y-52780312D01*
X34920998Y-52846447D01*
X34875946Y-52885484D01*
X34867182Y-52889949D01*
X34695213Y-53014890D01*
X34544890Y-53165213D01*
X34419951Y-53337179D01*
X34323444Y-53526585D01*
X34257753Y-53728760D01*
X34224500Y-53938713D01*
X34224500Y-54151287D01*
X34257754Y-54361243D01*
X34313003Y-54531282D01*
X34323444Y-54563414D01*
X34419951Y-54752820D01*
X34544890Y-54924786D01*
X34695213Y-55075109D01*
X34867182Y-55200050D01*
X34875946Y-55204516D01*
X34926742Y-55252491D01*
X34943536Y-55320312D01*
X34920998Y-55386447D01*
X34875946Y-55425484D01*
X34867182Y-55429949D01*
X34695213Y-55554890D01*
X34544890Y-55705213D01*
X34419951Y-55877179D01*
X34323444Y-56066585D01*
X34257753Y-56268760D01*
X34224500Y-56478713D01*
X34224500Y-56691287D01*
X34257754Y-56901243D01*
X34278958Y-56966503D01*
X34323444Y-57103414D01*
X34419951Y-57292820D01*
X34544890Y-57464786D01*
X34695213Y-57615109D01*
X34867182Y-57740050D01*
X34875946Y-57744516D01*
X34926742Y-57792491D01*
X34943536Y-57860312D01*
X34920998Y-57926447D01*
X34875946Y-57965484D01*
X34867182Y-57969949D01*
X34695213Y-58094890D01*
X34544890Y-58245213D01*
X34419951Y-58417179D01*
X34323444Y-58606585D01*
X34257753Y-58808760D01*
X34236254Y-58944500D01*
X34224500Y-59018713D01*
X34224500Y-59231287D01*
X34257754Y-59441243D01*
X34280585Y-59511510D01*
X34323444Y-59643414D01*
X34419951Y-59832820D01*
X34544890Y-60004786D01*
X34695213Y-60155109D01*
X34867182Y-60280050D01*
X34875946Y-60284516D01*
X34926742Y-60332491D01*
X34943536Y-60400312D01*
X34920998Y-60466447D01*
X34875946Y-60505484D01*
X34867182Y-60509949D01*
X34695213Y-60634890D01*
X34544890Y-60785213D01*
X34419951Y-60957179D01*
X34323444Y-61146585D01*
X34257753Y-61348760D01*
X34224500Y-61558713D01*
X34224500Y-61771286D01*
X34257753Y-61981239D01*
X34323444Y-62183414D01*
X34419951Y-62372820D01*
X34544890Y-62544786D01*
X34695213Y-62695109D01*
X34867182Y-62820050D01*
X34875946Y-62824516D01*
X34926742Y-62872491D01*
X34943536Y-62940312D01*
X34920998Y-63006447D01*
X34875946Y-63045484D01*
X34867182Y-63049949D01*
X34695213Y-63174890D01*
X34544890Y-63325213D01*
X34419951Y-63497179D01*
X34323444Y-63686585D01*
X34257753Y-63888760D01*
X34224500Y-64098713D01*
X34224500Y-64311286D01*
X34257753Y-64521239D01*
X34323444Y-64723414D01*
X34419951Y-64912820D01*
X34544890Y-65084786D01*
X34658430Y-65198326D01*
X34691915Y-65259649D01*
X34686931Y-65329341D01*
X34645059Y-65385274D01*
X34614083Y-65402189D01*
X34482669Y-65451203D01*
X34482664Y-65451206D01*
X34367455Y-65537452D01*
X34367452Y-65537455D01*
X34281206Y-65652664D01*
X34281202Y-65652671D01*
X34230908Y-65787517D01*
X34224501Y-65847116D01*
X34224501Y-65847123D01*
X34224500Y-65847135D01*
X34224500Y-67642870D01*
X34224501Y-67642876D01*
X34230908Y-67702483D01*
X34281202Y-67837328D01*
X34281206Y-67837335D01*
X34367452Y-67952544D01*
X34367455Y-67952547D01*
X34482664Y-68038793D01*
X34482671Y-68038797D01*
X34617517Y-68089091D01*
X34617516Y-68089091D01*
X34624444Y-68089835D01*
X34677127Y-68095500D01*
X36472872Y-68095499D01*
X36532483Y-68089091D01*
X36667331Y-68038796D01*
X36782546Y-67952546D01*
X36868796Y-67837331D01*
X36919091Y-67702483D01*
X36925500Y-67642873D01*
X36925499Y-66668713D01*
X43009500Y-66668713D01*
X43009500Y-66881286D01*
X43042753Y-67091239D01*
X43108444Y-67293414D01*
X43204951Y-67482820D01*
X43329890Y-67654786D01*
X43480213Y-67805109D01*
X43652179Y-67930048D01*
X43652181Y-67930049D01*
X43652184Y-67930051D01*
X43841588Y-68026557D01*
X44043757Y-68092246D01*
X44253713Y-68125500D01*
X44253714Y-68125500D01*
X44466286Y-68125500D01*
X44466287Y-68125500D01*
X44676243Y-68092246D01*
X44878412Y-68026557D01*
X45067816Y-67930051D01*
X45154478Y-67867088D01*
X45239784Y-67805110D01*
X45239784Y-67805109D01*
X45239792Y-67805104D01*
X45353717Y-67691178D01*
X45415036Y-67657696D01*
X45484728Y-67662680D01*
X45540662Y-67704551D01*
X45557577Y-67735528D01*
X45606646Y-67867088D01*
X45606649Y-67867093D01*
X45692809Y-67982187D01*
X45692812Y-67982190D01*
X45807906Y-68068350D01*
X45807913Y-68068354D01*
X45942620Y-68118596D01*
X45942627Y-68118598D01*
X46002155Y-68124999D01*
X46002172Y-68125000D01*
X46650000Y-68125000D01*
X46650000Y-67208012D01*
X46707007Y-67240925D01*
X46834174Y-67275000D01*
X46965826Y-67275000D01*
X47092993Y-67240925D01*
X47150000Y-67208012D01*
X47150000Y-68125000D01*
X47797828Y-68125000D01*
X47797844Y-68124999D01*
X47857372Y-68118598D01*
X47857379Y-68118596D01*
X47992086Y-68068354D01*
X47992093Y-68068350D01*
X48107187Y-67982190D01*
X48107190Y-67982187D01*
X48193350Y-67867093D01*
X48193354Y-67867086D01*
X48243596Y-67732379D01*
X48243598Y-67732372D01*
X48249999Y-67672844D01*
X48250000Y-67672827D01*
X48250000Y-67025000D01*
X47333012Y-67025000D01*
X47365925Y-66967993D01*
X47400000Y-66840826D01*
X47400000Y-66709174D01*
X47365925Y-66582007D01*
X47333012Y-66525000D01*
X48250000Y-66525000D01*
X48250000Y-65877172D01*
X48249999Y-65877155D01*
X48243598Y-65817627D01*
X48243596Y-65817620D01*
X48193354Y-65682913D01*
X48193350Y-65682906D01*
X48107190Y-65567812D01*
X48107187Y-65567809D01*
X47992093Y-65481649D01*
X47992086Y-65481645D01*
X47857379Y-65431403D01*
X47857372Y-65431401D01*
X47797844Y-65425000D01*
X47150000Y-65425000D01*
X47150000Y-66341988D01*
X47092993Y-66309075D01*
X46965826Y-66275000D01*
X46834174Y-66275000D01*
X46707007Y-66309075D01*
X46650000Y-66341988D01*
X46650000Y-65425000D01*
X46002155Y-65425000D01*
X45942627Y-65431401D01*
X45942620Y-65431403D01*
X45807913Y-65481645D01*
X45807906Y-65481649D01*
X45692812Y-65567809D01*
X45692809Y-65567812D01*
X45606649Y-65682906D01*
X45606646Y-65682912D01*
X45557577Y-65814471D01*
X45515705Y-65870404D01*
X45450241Y-65894821D01*
X45381968Y-65879969D01*
X45353714Y-65858818D01*
X45239786Y-65744890D01*
X45067820Y-65619951D01*
X44878414Y-65523444D01*
X44878413Y-65523443D01*
X44878412Y-65523443D01*
X44676243Y-65457754D01*
X44676241Y-65457753D01*
X44676240Y-65457753D01*
X44514957Y-65432208D01*
X44466287Y-65424500D01*
X44253713Y-65424500D01*
X44205042Y-65432208D01*
X44043760Y-65457753D01*
X43841585Y-65523444D01*
X43652179Y-65619951D01*
X43480213Y-65744890D01*
X43329890Y-65895213D01*
X43204951Y-66067179D01*
X43108444Y-66256585D01*
X43042753Y-66458760D01*
X43009500Y-66668713D01*
X36925499Y-66668713D01*
X36925499Y-65847128D01*
X36919091Y-65787517D01*
X36903194Y-65744896D01*
X36868797Y-65652671D01*
X36868793Y-65652664D01*
X36782547Y-65537455D01*
X36782544Y-65537452D01*
X36667335Y-65451206D01*
X36667328Y-65451202D01*
X36535917Y-65402189D01*
X36479983Y-65360318D01*
X36455566Y-65294853D01*
X36470418Y-65226580D01*
X36491563Y-65198332D01*
X36605104Y-65084792D01*
X36730051Y-64912816D01*
X36826557Y-64723412D01*
X36892246Y-64521243D01*
X36925500Y-64311287D01*
X36925500Y-64098713D01*
X36892246Y-63888757D01*
X36826557Y-63686588D01*
X36730051Y-63497184D01*
X36730049Y-63497181D01*
X36730048Y-63497179D01*
X36605109Y-63325213D01*
X36454786Y-63174890D01*
X36282820Y-63049951D01*
X36282115Y-63049591D01*
X36274054Y-63045485D01*
X36223259Y-62997512D01*
X36206463Y-62929692D01*
X36228999Y-62863556D01*
X36274054Y-62824515D01*
X36282816Y-62820051D01*
X36304789Y-62804086D01*
X36454786Y-62695109D01*
X36454788Y-62695106D01*
X36454792Y-62695104D01*
X36605104Y-62544792D01*
X36605106Y-62544788D01*
X36605109Y-62544786D01*
X36730048Y-62372820D01*
X36730047Y-62372820D01*
X36730051Y-62372816D01*
X36826557Y-62183412D01*
X36892246Y-61981243D01*
X36925500Y-61771287D01*
X36925500Y-61558713D01*
X36892246Y-61348757D01*
X36826557Y-61146588D01*
X36730051Y-60957184D01*
X36730049Y-60957181D01*
X36730048Y-60957179D01*
X36605109Y-60785213D01*
X36454786Y-60634890D01*
X36282820Y-60509951D01*
X36282115Y-60509591D01*
X36274054Y-60505485D01*
X36223259Y-60457512D01*
X36206463Y-60389692D01*
X36228999Y-60323556D01*
X36274054Y-60284515D01*
X36282816Y-60280051D01*
X36316898Y-60255289D01*
X36454786Y-60155109D01*
X36454788Y-60155106D01*
X36454792Y-60155104D01*
X36605104Y-60004792D01*
X36605106Y-60004788D01*
X36605109Y-60004786D01*
X36730048Y-59832820D01*
X36730047Y-59832820D01*
X36730051Y-59832816D01*
X36826557Y-59643412D01*
X36892246Y-59441243D01*
X36925500Y-59231287D01*
X36925500Y-59018713D01*
X36892246Y-58808757D01*
X36826557Y-58606588D01*
X36730051Y-58417184D01*
X36730049Y-58417181D01*
X36730048Y-58417179D01*
X36605109Y-58245213D01*
X36454786Y-58094890D01*
X36282820Y-57969951D01*
X36282115Y-57969591D01*
X36274054Y-57965485D01*
X36223259Y-57917512D01*
X36206463Y-57849692D01*
X36228999Y-57783556D01*
X36274054Y-57744515D01*
X36282816Y-57740051D01*
X36323782Y-57710288D01*
X36454786Y-57615109D01*
X36454788Y-57615106D01*
X36454792Y-57615104D01*
X36605104Y-57464792D01*
X36605106Y-57464788D01*
X36605109Y-57464786D01*
X36730048Y-57292820D01*
X36730047Y-57292820D01*
X36730051Y-57292816D01*
X36826557Y-57103412D01*
X36892246Y-56901243D01*
X36925500Y-56691287D01*
X36925500Y-56478713D01*
X36892246Y-56268757D01*
X36826557Y-56066588D01*
X36730051Y-55877184D01*
X36730049Y-55877181D01*
X36730048Y-55877179D01*
X36605109Y-55705213D01*
X36454786Y-55554890D01*
X36282820Y-55429951D01*
X36282115Y-55429591D01*
X36274054Y-55425485D01*
X36223259Y-55377512D01*
X36206463Y-55309692D01*
X36228999Y-55243556D01*
X36274054Y-55204515D01*
X36282816Y-55200051D01*
X36353447Y-55148735D01*
X36454786Y-55075109D01*
X36454788Y-55075106D01*
X36454792Y-55075104D01*
X36605104Y-54924792D01*
X36605106Y-54924788D01*
X36605109Y-54924786D01*
X36730048Y-54752820D01*
X36730047Y-54752820D01*
X36730051Y-54752816D01*
X36826557Y-54563412D01*
X36892246Y-54361243D01*
X36925500Y-54151287D01*
X36925500Y-53938713D01*
X36892246Y-53728757D01*
X36826557Y-53526588D01*
X36730051Y-53337184D01*
X36730049Y-53337181D01*
X36730048Y-53337179D01*
X36605109Y-53165213D01*
X36454786Y-53014890D01*
X36282820Y-52889951D01*
X36282115Y-52889591D01*
X36274054Y-52885485D01*
X36223259Y-52837512D01*
X36206463Y-52769692D01*
X36228999Y-52703556D01*
X36274054Y-52664515D01*
X36282816Y-52660051D01*
X36304789Y-52644086D01*
X36454786Y-52535109D01*
X36454788Y-52535106D01*
X36454792Y-52535104D01*
X36605104Y-52384792D01*
X36605106Y-52384788D01*
X36605109Y-52384786D01*
X36730048Y-52212820D01*
X36730047Y-52212820D01*
X36730051Y-52212816D01*
X36826557Y-52023412D01*
X36892246Y-51821243D01*
X36925500Y-51611287D01*
X36925500Y-51398713D01*
X36892246Y-51188757D01*
X36826557Y-50986588D01*
X36730051Y-50797184D01*
X36730049Y-50797181D01*
X36730048Y-50797179D01*
X36605109Y-50625213D01*
X36454786Y-50474890D01*
X36282820Y-50349951D01*
X36282115Y-50349591D01*
X36274054Y-50345485D01*
X36223259Y-50297512D01*
X36206463Y-50229692D01*
X36228999Y-50163556D01*
X36274054Y-50124515D01*
X36282816Y-50120051D01*
X36304789Y-50104086D01*
X36454786Y-49995109D01*
X36454788Y-49995106D01*
X36454792Y-49995104D01*
X36605104Y-49844792D01*
X36605106Y-49844788D01*
X36605109Y-49844786D01*
X36730048Y-49672820D01*
X36730047Y-49672820D01*
X36730051Y-49672816D01*
X36826557Y-49483412D01*
X36892246Y-49281243D01*
X36925500Y-49071287D01*
X36925500Y-48858713D01*
X36892246Y-48648757D01*
X36826557Y-48446588D01*
X36730051Y-48257184D01*
X36730049Y-48257181D01*
X36730048Y-48257179D01*
X36605109Y-48085213D01*
X36454786Y-47934890D01*
X36282820Y-47809951D01*
X36093414Y-47713444D01*
X36093413Y-47713443D01*
X36093412Y-47713443D01*
X35891243Y-47647754D01*
X35891241Y-47647753D01*
X35891240Y-47647753D01*
X35729957Y-47622208D01*
X35681287Y-47614500D01*
X35468713Y-47614500D01*
X35420042Y-47622208D01*
X35258760Y-47647753D01*
X35056585Y-47713444D01*
X34867179Y-47809951D01*
X34695213Y-47934890D01*
X34544890Y-48085213D01*
X34419951Y-48257179D01*
X34323444Y-48446585D01*
X34257753Y-48648760D01*
X34224500Y-48858713D01*
X33700500Y-48858713D01*
X33700500Y-35879765D01*
X33720185Y-35812726D01*
X33721398Y-35810874D01*
X33809390Y-35679185D01*
X33809390Y-35679184D01*
X33809394Y-35679179D01*
X33869737Y-35533497D01*
X33900500Y-35378842D01*
X33900500Y-35221158D01*
X33900500Y-35221155D01*
X33900499Y-35221153D01*
X33869738Y-35066510D01*
X33869737Y-35066503D01*
X33854703Y-35030208D01*
X33809397Y-34920827D01*
X33809390Y-34920814D01*
X33721789Y-34789711D01*
X33721786Y-34789707D01*
X33661935Y-34729856D01*
X33628450Y-34668533D01*
X33633434Y-34598841D01*
X33646512Y-34573287D01*
X33709394Y-34479179D01*
X33769737Y-34333497D01*
X33800500Y-34178842D01*
X33800500Y-34021158D01*
X33800500Y-34021155D01*
X33800499Y-34021153D01*
X33769738Y-33866510D01*
X33769737Y-33866503D01*
X33760381Y-33843915D01*
X33709397Y-33720827D01*
X33709390Y-33720814D01*
X33621789Y-33589711D01*
X33621786Y-33589707D01*
X33510292Y-33478213D01*
X33510288Y-33478210D01*
X33379185Y-33390609D01*
X33379172Y-33390602D01*
X33233501Y-33330264D01*
X33233489Y-33330261D01*
X33078845Y-33299500D01*
X33078842Y-33299500D01*
X32921158Y-33299500D01*
X32921155Y-33299500D01*
X32766510Y-33330261D01*
X32766498Y-33330264D01*
X32620827Y-33390602D01*
X32620814Y-33390609D01*
X32489127Y-33478601D01*
X32422450Y-33499479D01*
X32420236Y-33499499D01*
X32270943Y-33499499D01*
X32194579Y-33519961D01*
X32118214Y-33540423D01*
X32118209Y-33540426D01*
X31981290Y-33619475D01*
X31981282Y-33619481D01*
X31819479Y-33781284D01*
X31794063Y-33825306D01*
X31783321Y-33843914D01*
X31740423Y-33918215D01*
X31699499Y-34070943D01*
X31699499Y-34070945D01*
X31699499Y-34239046D01*
X31699500Y-34239059D01*
X31699500Y-73895234D01*
X31679815Y-73962273D01*
X31678602Y-73964125D01*
X31590609Y-74095814D01*
X31590602Y-74095827D01*
X31530264Y-74241498D01*
X31530261Y-74241510D01*
X31499500Y-74396153D01*
X30250500Y-74396153D01*
X30250500Y-31421153D01*
X35999500Y-31421153D01*
X35999500Y-31578846D01*
X36030261Y-31733489D01*
X36030264Y-31733501D01*
X36090602Y-31879172D01*
X36090609Y-31879185D01*
X36178602Y-32010874D01*
X36199480Y-32077551D01*
X36199500Y-32079765D01*
X36199500Y-33313330D01*
X36199499Y-33313348D01*
X36199499Y-33479054D01*
X36199498Y-33479054D01*
X36240423Y-33631785D01*
X36269358Y-33681900D01*
X36269359Y-33681904D01*
X36269360Y-33681904D01*
X36319479Y-33768714D01*
X36319481Y-33768717D01*
X36438349Y-33887585D01*
X36438355Y-33887590D01*
X57663181Y-55112416D01*
X57696666Y-55173739D01*
X57699500Y-55200097D01*
X57699500Y-56620234D01*
X57679815Y-56687273D01*
X57678602Y-56689125D01*
X57590609Y-56820814D01*
X57590602Y-56820827D01*
X57530264Y-56966498D01*
X57530261Y-56966510D01*
X57499500Y-57121153D01*
X57499500Y-57278846D01*
X57530261Y-57433489D01*
X57530264Y-57433501D01*
X57590602Y-57579172D01*
X57590609Y-57579185D01*
X57678210Y-57710288D01*
X57678213Y-57710292D01*
X57789707Y-57821786D01*
X57789711Y-57821789D01*
X57920814Y-57909390D01*
X57920827Y-57909397D01*
X58056235Y-57965484D01*
X58066503Y-57969737D01*
X58221153Y-58000499D01*
X58221156Y-58000500D01*
X58221158Y-58000500D01*
X58378844Y-58000500D01*
X58378845Y-58000499D01*
X58533497Y-57969737D01*
X58679179Y-57909394D01*
X58810289Y-57821789D01*
X58921789Y-57710289D01*
X59009394Y-57579179D01*
X59069737Y-57433497D01*
X59100500Y-57278842D01*
X59100500Y-57121158D01*
X59100500Y-57121155D01*
X59100499Y-57121153D01*
X59069738Y-56966510D01*
X59069737Y-56966503D01*
X59042704Y-56901239D01*
X59009397Y-56820827D01*
X59009390Y-56820814D01*
X58921398Y-56689125D01*
X58900520Y-56622447D01*
X58900500Y-56620234D01*
X58900500Y-54989060D01*
X58900501Y-54989047D01*
X58900501Y-54820944D01*
X58859576Y-54668214D01*
X58859573Y-54668209D01*
X58780524Y-54531290D01*
X58780518Y-54531282D01*
X37436819Y-33187583D01*
X37403334Y-33126260D01*
X37400500Y-33099902D01*
X37400500Y-32079765D01*
X37420185Y-32012726D01*
X37421398Y-32010874D01*
X37438653Y-31985051D01*
X37509394Y-31879179D01*
X37569737Y-31733497D01*
X37600500Y-31578842D01*
X37600500Y-31421158D01*
X37600500Y-31421155D01*
X37600499Y-31421153D01*
X37569738Y-31266510D01*
X37569737Y-31266503D01*
X37519924Y-31146243D01*
X37509397Y-31120827D01*
X37509390Y-31120814D01*
X37421789Y-30989711D01*
X37421786Y-30989707D01*
X37310292Y-30878213D01*
X37310288Y-30878210D01*
X37179185Y-30790609D01*
X37179172Y-30790602D01*
X37033501Y-30730264D01*
X37033489Y-30730261D01*
X36878845Y-30699500D01*
X36878842Y-30699500D01*
X36721158Y-30699500D01*
X36721155Y-30699500D01*
X36566510Y-30730261D01*
X36566498Y-30730264D01*
X36420827Y-30790602D01*
X36420814Y-30790609D01*
X36289711Y-30878210D01*
X36289707Y-30878213D01*
X36178213Y-30989707D01*
X36178210Y-30989711D01*
X36090609Y-31120814D01*
X36090602Y-31120827D01*
X36030264Y-31266498D01*
X36030261Y-31266510D01*
X35999500Y-31421153D01*
X30250500Y-31421153D01*
X30250500Y-27502135D01*
X43124500Y-27502135D01*
X43124500Y-29297870D01*
X43124501Y-29297876D01*
X43130908Y-29357483D01*
X43181202Y-29492328D01*
X43181206Y-29492335D01*
X43267452Y-29607544D01*
X43267455Y-29607547D01*
X43382664Y-29693793D01*
X43382671Y-29693797D01*
X43517517Y-29744091D01*
X43517516Y-29744091D01*
X43524444Y-29744835D01*
X43577127Y-29750500D01*
X45372872Y-29750499D01*
X45432483Y-29744091D01*
X45567331Y-29693796D01*
X45682546Y-29607546D01*
X45768796Y-29492331D01*
X45819091Y-29357483D01*
X45825500Y-29297873D01*
X45825499Y-27502128D01*
X45819091Y-27442517D01*
X45800300Y-27392135D01*
X58089500Y-27392135D01*
X58089500Y-29187870D01*
X58089501Y-29187876D01*
X58095908Y-29247483D01*
X58146202Y-29382328D01*
X58146206Y-29382335D01*
X58232452Y-29497544D01*
X58232455Y-29497547D01*
X58347664Y-29583793D01*
X58347671Y-29583797D01*
X58479082Y-29632810D01*
X58535016Y-29674681D01*
X58559433Y-29740145D01*
X58544582Y-29808418D01*
X58523431Y-29836673D01*
X58409889Y-29950215D01*
X58284951Y-30122179D01*
X58188444Y-30311585D01*
X58122753Y-30513760D01*
X58089500Y-30723713D01*
X58089500Y-30936286D01*
X58118727Y-31120821D01*
X58122754Y-31146243D01*
X58161831Y-31266510D01*
X58188444Y-31348414D01*
X58284951Y-31537820D01*
X58409890Y-31709786D01*
X58560213Y-31860109D01*
X58732182Y-31985050D01*
X58740946Y-31989516D01*
X58791742Y-32037491D01*
X58808536Y-32105312D01*
X58785998Y-32171447D01*
X58740946Y-32210484D01*
X58732182Y-32214949D01*
X58560213Y-32339890D01*
X58409890Y-32490213D01*
X58284951Y-32662179D01*
X58188444Y-32851585D01*
X58122753Y-33053760D01*
X58107310Y-33151264D01*
X58089500Y-33263713D01*
X58089500Y-33476287D01*
X58093177Y-33499500D01*
X58122066Y-33681904D01*
X58122754Y-33686243D01*
X58188174Y-33887585D01*
X58188444Y-33888414D01*
X58284951Y-34077820D01*
X58409890Y-34249786D01*
X58560213Y-34400109D01*
X58732182Y-34525050D01*
X58740946Y-34529516D01*
X58791742Y-34577491D01*
X58808536Y-34645312D01*
X58785998Y-34711447D01*
X58740946Y-34750484D01*
X58732182Y-34754949D01*
X58560213Y-34879890D01*
X58409890Y-35030213D01*
X58284951Y-35202179D01*
X58188444Y-35391585D01*
X58122753Y-35593760D01*
X58089500Y-35803713D01*
X58089500Y-36016286D01*
X58122753Y-36226239D01*
X58188444Y-36428414D01*
X58284951Y-36617820D01*
X58409890Y-36789786D01*
X58560213Y-36940109D01*
X58732182Y-37065050D01*
X58740946Y-37069516D01*
X58791742Y-37117491D01*
X58808536Y-37185312D01*
X58785998Y-37251447D01*
X58740946Y-37290484D01*
X58732182Y-37294949D01*
X58560213Y-37419890D01*
X58409890Y-37570213D01*
X58284951Y-37742179D01*
X58188444Y-37931585D01*
X58122753Y-38133760D01*
X58089500Y-38343713D01*
X58089500Y-38556286D01*
X58122753Y-38766239D01*
X58188444Y-38968414D01*
X58284951Y-39157820D01*
X58409890Y-39329786D01*
X58560213Y-39480109D01*
X58732182Y-39605050D01*
X58740946Y-39609516D01*
X58791742Y-39657491D01*
X58808536Y-39725312D01*
X58785998Y-39791447D01*
X58740946Y-39830484D01*
X58732182Y-39834949D01*
X58560213Y-39959890D01*
X58409890Y-40110213D01*
X58284951Y-40282179D01*
X58188444Y-40471585D01*
X58122753Y-40673760D01*
X58089500Y-40883713D01*
X58089500Y-41096286D01*
X58122753Y-41306239D01*
X58188444Y-41508414D01*
X58284951Y-41697820D01*
X58409890Y-41869786D01*
X58560213Y-42020109D01*
X58732182Y-42145050D01*
X58740946Y-42149516D01*
X58791742Y-42197491D01*
X58808536Y-42265312D01*
X58785998Y-42331447D01*
X58740946Y-42370484D01*
X58732182Y-42374949D01*
X58560213Y-42499890D01*
X58409890Y-42650213D01*
X58284951Y-42822179D01*
X58188444Y-43011585D01*
X58122753Y-43213760D01*
X58089500Y-43423713D01*
X58089500Y-43636286D01*
X58122753Y-43846239D01*
X58188444Y-44048414D01*
X58284951Y-44237820D01*
X58409890Y-44409786D01*
X58560213Y-44560109D01*
X58732182Y-44685050D01*
X58740946Y-44689516D01*
X58791742Y-44737491D01*
X58808536Y-44805312D01*
X58785998Y-44871447D01*
X58740946Y-44910484D01*
X58732182Y-44914949D01*
X58560213Y-45039890D01*
X58409890Y-45190213D01*
X58284951Y-45362179D01*
X58188444Y-45551585D01*
X58122753Y-45753760D01*
X58089500Y-45963713D01*
X58089500Y-46176286D01*
X58122753Y-46386239D01*
X58188444Y-46588414D01*
X58284951Y-46777820D01*
X58409890Y-46949786D01*
X58560213Y-47100109D01*
X58732179Y-47225048D01*
X58732181Y-47225049D01*
X58732184Y-47225051D01*
X58921588Y-47321557D01*
X59123757Y-47387246D01*
X59333713Y-47420500D01*
X59333714Y-47420500D01*
X59546286Y-47420500D01*
X59546287Y-47420500D01*
X59756243Y-47387246D01*
X59958412Y-47321557D01*
X60147816Y-47225051D01*
X60169789Y-47209086D01*
X60319786Y-47100109D01*
X60319788Y-47100106D01*
X60319792Y-47100104D01*
X60470104Y-46949792D01*
X60470106Y-46949788D01*
X60470109Y-46949786D01*
X60595048Y-46777820D01*
X60595047Y-46777820D01*
X60595051Y-46777816D01*
X60691557Y-46588412D01*
X60757246Y-46386243D01*
X60790500Y-46176287D01*
X60790500Y-45963713D01*
X60757246Y-45753757D01*
X60691557Y-45551588D01*
X60595051Y-45362184D01*
X60595049Y-45362181D01*
X60595048Y-45362179D01*
X60470109Y-45190213D01*
X60319786Y-45039890D01*
X60147820Y-44914951D01*
X60147115Y-44914591D01*
X60139054Y-44910485D01*
X60088259Y-44862512D01*
X60071463Y-44794692D01*
X60093999Y-44728556D01*
X60139054Y-44689515D01*
X60147816Y-44685051D01*
X60169789Y-44669086D01*
X60319786Y-44560109D01*
X60319788Y-44560106D01*
X60319792Y-44560104D01*
X60470104Y-44409792D01*
X60470106Y-44409788D01*
X60470109Y-44409786D01*
X60595048Y-44237820D01*
X60595047Y-44237820D01*
X60595051Y-44237816D01*
X60691557Y-44048412D01*
X60757246Y-43846243D01*
X60790500Y-43636287D01*
X60790500Y-43423713D01*
X60757246Y-43213757D01*
X60691557Y-43011588D01*
X60595051Y-42822184D01*
X60595049Y-42822181D01*
X60595048Y-42822179D01*
X60470109Y-42650213D01*
X60319786Y-42499890D01*
X60147820Y-42374951D01*
X60147115Y-42374591D01*
X60139054Y-42370485D01*
X60088259Y-42322512D01*
X60071463Y-42254692D01*
X60093999Y-42188556D01*
X60139054Y-42149515D01*
X60147816Y-42145051D01*
X60169789Y-42129086D01*
X60319786Y-42020109D01*
X60319788Y-42020106D01*
X60319792Y-42020104D01*
X60470104Y-41869792D01*
X60470106Y-41869788D01*
X60470109Y-41869786D01*
X60595048Y-41697820D01*
X60595047Y-41697820D01*
X60595051Y-41697816D01*
X60691557Y-41508412D01*
X60757246Y-41306243D01*
X60790500Y-41096287D01*
X60790500Y-40883713D01*
X60757246Y-40673757D01*
X60691557Y-40471588D01*
X60595051Y-40282184D01*
X60595049Y-40282181D01*
X60595048Y-40282179D01*
X60470109Y-40110213D01*
X60319786Y-39959890D01*
X60147820Y-39834951D01*
X60147115Y-39834591D01*
X60139054Y-39830485D01*
X60088259Y-39782512D01*
X60071463Y-39714692D01*
X60093999Y-39648556D01*
X60139054Y-39609515D01*
X60147816Y-39605051D01*
X60169789Y-39589086D01*
X60319786Y-39480109D01*
X60319788Y-39480106D01*
X60319792Y-39480104D01*
X60470104Y-39329792D01*
X60470106Y-39329788D01*
X60470109Y-39329786D01*
X60595048Y-39157820D01*
X60595047Y-39157820D01*
X60595051Y-39157816D01*
X60691557Y-38968412D01*
X60757246Y-38766243D01*
X60790500Y-38556287D01*
X60790500Y-38343713D01*
X60757246Y-38133757D01*
X60691557Y-37931588D01*
X60595051Y-37742184D01*
X60595049Y-37742181D01*
X60595048Y-37742179D01*
X60470109Y-37570213D01*
X60319786Y-37419890D01*
X60147820Y-37294951D01*
X60147115Y-37294591D01*
X60139054Y-37290485D01*
X60088259Y-37242512D01*
X60071463Y-37174692D01*
X60093999Y-37108556D01*
X60139054Y-37069515D01*
X60147816Y-37065051D01*
X60169789Y-37049086D01*
X60319786Y-36940109D01*
X60319788Y-36940106D01*
X60319792Y-36940104D01*
X60470104Y-36789792D01*
X60470106Y-36789788D01*
X60470109Y-36789786D01*
X60595048Y-36617820D01*
X60595047Y-36617820D01*
X60595051Y-36617816D01*
X60691557Y-36428412D01*
X60757246Y-36226243D01*
X60790500Y-36016287D01*
X60790500Y-35803713D01*
X60757246Y-35593757D01*
X60691557Y-35391588D01*
X60595051Y-35202184D01*
X60595049Y-35202181D01*
X60595048Y-35202179D01*
X60470109Y-35030213D01*
X60319786Y-34879890D01*
X60147820Y-34754951D01*
X60147115Y-34754591D01*
X60139054Y-34750485D01*
X60088259Y-34702512D01*
X60071463Y-34634692D01*
X60093999Y-34568556D01*
X60139054Y-34529515D01*
X60147816Y-34525051D01*
X60210954Y-34479179D01*
X60319786Y-34400109D01*
X60319788Y-34400106D01*
X60319792Y-34400104D01*
X60470104Y-34249792D01*
X60470106Y-34249788D01*
X60470109Y-34249786D01*
X60595048Y-34077820D01*
X60595047Y-34077820D01*
X60595051Y-34077816D01*
X60691557Y-33888412D01*
X60757246Y-33686243D01*
X60790500Y-33476287D01*
X60790500Y-33263713D01*
X60757246Y-33053757D01*
X60691557Y-32851588D01*
X60595051Y-32662184D01*
X60595049Y-32662181D01*
X60595048Y-32662179D01*
X60470109Y-32490213D01*
X60319786Y-32339890D01*
X60147820Y-32214951D01*
X60147115Y-32214591D01*
X60139054Y-32210485D01*
X60088259Y-32162512D01*
X60071463Y-32094692D01*
X60093999Y-32028556D01*
X60139054Y-31989515D01*
X60147816Y-31985051D01*
X60169789Y-31969086D01*
X60319786Y-31860109D01*
X60319788Y-31860106D01*
X60319792Y-31860104D01*
X60470104Y-31709792D01*
X60470106Y-31709788D01*
X60470109Y-31709786D01*
X60595048Y-31537820D01*
X60595047Y-31537820D01*
X60595051Y-31537816D01*
X60691557Y-31348412D01*
X60757246Y-31146243D01*
X60790500Y-30936287D01*
X60790500Y-30723713D01*
X60757246Y-30513757D01*
X60691557Y-30311588D01*
X60595051Y-30122184D01*
X60595049Y-30122181D01*
X60595048Y-30122179D01*
X60470109Y-29950213D01*
X60356569Y-29836673D01*
X60323084Y-29775350D01*
X60328068Y-29705658D01*
X60369940Y-29649725D01*
X60400915Y-29632810D01*
X60532331Y-29583796D01*
X60647546Y-29497546D01*
X60733796Y-29382331D01*
X60784091Y-29247483D01*
X60790500Y-29187873D01*
X60790499Y-27392128D01*
X60784091Y-27332517D01*
X60774823Y-27307669D01*
X60733797Y-27197671D01*
X60733793Y-27197664D01*
X60647547Y-27082455D01*
X60647544Y-27082452D01*
X60532335Y-26996206D01*
X60532328Y-26996202D01*
X60397482Y-26945908D01*
X60397483Y-26945908D01*
X60337883Y-26939501D01*
X60337881Y-26939500D01*
X60337873Y-26939500D01*
X60337864Y-26939500D01*
X58542129Y-26939500D01*
X58542123Y-26939501D01*
X58482516Y-26945908D01*
X58347671Y-26996202D01*
X58347664Y-26996206D01*
X58232455Y-27082452D01*
X58232452Y-27082455D01*
X58146206Y-27197664D01*
X58146202Y-27197671D01*
X58095908Y-27332517D01*
X58089501Y-27392116D01*
X58089501Y-27392123D01*
X58089500Y-27392135D01*
X45800300Y-27392135D01*
X45800297Y-27392127D01*
X45768798Y-27307673D01*
X45768793Y-27307664D01*
X45682547Y-27192455D01*
X45682544Y-27192452D01*
X45567335Y-27106206D01*
X45567328Y-27106202D01*
X45432482Y-27055908D01*
X45432483Y-27055908D01*
X45372883Y-27049501D01*
X45372881Y-27049500D01*
X45372873Y-27049500D01*
X45372864Y-27049500D01*
X43577129Y-27049500D01*
X43577123Y-27049501D01*
X43517516Y-27055908D01*
X43382671Y-27106202D01*
X43382664Y-27106206D01*
X43267455Y-27192452D01*
X43267452Y-27192455D01*
X43181206Y-27307664D01*
X43181202Y-27307671D01*
X43130908Y-27442517D01*
X43124501Y-27502116D01*
X43124501Y-27502123D01*
X43124500Y-27502135D01*
X30250500Y-27502135D01*
X30250500Y-25874500D01*
X30270185Y-25807461D01*
X30322989Y-25761706D01*
X30374500Y-25750500D01*
X64125500Y-25750500D01*
X64192539Y-25770185D01*
G37*
%TD.AperFunction*%
%TD*%
M02*
